<?xml version="1.0" standalone="no"?>
<!DOCTYPE svg PUBLIC "-//W3C//DTD SVG 1.1//EN" "http://www.w3.org/Graphics/SVG/1.1/DTD/svg11.dtd" >
<svg xmlns="http://www.w3.org/2000/svg">
<metadata>
This is a custom SVG font generated by IcoMoon.
<iconset grid="16"></iconset>
</metadata>
<defs>
<font id="iconminia" horiz-adv-x="512" >
<font-face units-per-em="512" ascent="480" descent="-32" />
<missing-glyph horiz-adv-x="512" />
<glyph unicode="&#xe001;" d="M 96.00,384.00l 320.00,0.00 l0.00-32.00 L 96.00,352.00 L 96.00,384.00 z M 96.00,288.00l 320.00,0.00 l0.00-32.00 L 96.00,256.00 L 96.00,288.00 z M 96.00,192.00l 160.00,0.00 l0.00-32.00 L 96.00,160.00 L 96.00,192.00 z M 320.00,192.00l 96.00,0.00 l0.00-32.00 l-96.00,0.00 L 320.00,192.00 z M 96.00,96.00l 96.00,0.00 l0.00-32.00 L 96.00,64.00 
	L 96.00,96.00 z M 256.00,96.00l 160.00,0.00 l0.00-32.00 L 256.00,64.00 L 256.00,96.00 z M0.00,416.00l0.00-384.00 c0.00-32.00, 32.00-64.00, 64.00-64.00l 384.00,0.00 c 32.00,0.00, 64.00,32.00, 64.00,64.00L 512.00,416.00 c0.00,32.00-32.00,64.00-64.00,64.00L 64.00,480.00 C 32.00,480.00,0.00,448.00,0.00,416.00z" data-tags="list, file" />
<glyph unicode="&#xe002;" d="M 128.00,48.00c0.00-8.00, 8.336-16.00, 16.688-16.00L 480.00,32.00 l0.00,32.00 L 144.688,64.00 C 136.336,64.00, 128.00,56.00, 128.00,48.00z M 32.00,416.00l0.00-384.00 
	c0.00-32.00, 32.00-64.00, 64.00-64.00l 384.00,0.00 l0.00,32.00 L 146.08,0.00 C 121.04,0.00, 96.00,24.00, 96.00,48.00s 25.04,48.00, 50.08,48.00L 480.00,96.00 L 480.00,480.00 L 96.00,480.00 C 64.00,480.00, 32.00,448.00, 32.00,416.00z" data-tags="book" />
<glyph unicode="&#xe003;" d="M 32.00,96.00l0.00-96.00 l 96.00,0.00 L 32.00,96.00z M 397.712,448.00L 384.00,434.288L 466.288,352.00L 480.00,365.712L 397.712,448.00z M 365.712,416.00
	L 64.00,114.288L 146.288,32.00L 448.00,333.712L 365.712,416.00z" data-tags="pencil, write, blog" />
<glyph unicode="&#xe004;" d="M 160.00,444.464c-32.00,0.00-64.00-32.00-64.00-64.00l0.00-372.816 c0.00-32.00, 19.264-38.432, 38.512-12.896l 118.992,157.856
	l 124.496-168.656C 396.992-41.776, 416.00-35.536, 416.00-3.536l0.00,384.00 c0.00,32.00-32.00,64.00-64.00,64.00L 160.00,444.464 z" data-tags="bookmark" />
<glyph unicode="&#xe005;" d="M 401.712,11.808c 15.664-15.744, 47.024-15.744, 62.72,0.00l 3.808,3.824
	c 15.664,15.76, 15.664,47.28,0.00,63.04l-146.048,146.784l 64.912,54.368c 34.08,28.544, 25.664,69.888-16.832,82.688L 96.72,445.04
	C 54.24,457.84, 23.04,427.552, 34.336,384.432l 65.728-251.056c 11.296-43.088, 56.64-57.664, 90.704-29.12l 64.928,54.352L 401.712,11.808z" data-tags="pointer, mouse" />
<glyph unicode="&#xe006;" d="M 419.552,251.296c 0.048,1.312, 0.064,2.608, 0.064,3.92
	c0.00,71.12-56.88,128.784-127.04,128.784c-53.104,0.00-98.608-33.04-117.584-79.968c-11.104,8.528-25.072,13.616-40.256,13.616
	c-36.144,0.00-65.44-28.832-65.44-64.384c0.00-1.76, 0.064-3.504, 0.208-5.232C 29.456,237.216,0.00,200.864,0.00,157.664C0.00,105.92, 42.224,64.00, 94.32,64.00l 1.936,0.00 
	l 319.504,0.00 l 1.936,0.00 C 469.776,64.00, 512.00,105.92, 512.00,157.664C 512.00,208.768, 470.784,250.32, 419.552,251.296z" data-tags="cloud, weather" />
<glyph unicode="&#xe007;" d="M 239.52,114.368l0.00,111.664 L 170.176,224.00l 97.664,91.856L 365.504,224.00l-69.344,2.048l0.00-61.488 l0.00-50.192 
	L 239.52,114.368 z M 419.552,251.296c 0.048,1.312, 0.064,2.608, 0.064,3.92c0.00,71.12-56.88,128.784-127.04,128.784c-53.104,0.00-98.608-33.04-117.584-79.968
	c-11.104,8.528-25.072,13.616-40.256,13.616c-36.144,0.00-65.44-28.832-65.44-64.384c0.00-1.76, 0.064-3.504, 0.208-5.232
	C 29.456,237.216,0.00,200.864,0.00,157.664C0.00,105.92, 42.224,64.00, 94.32,64.00l 1.92,0.00 l 319.52,0.00 l 1.936,0.00 C 469.776,64.00, 512.00,105.92, 512.00,157.664
	C 512.00,208.768, 470.784,250.32, 419.552,251.296z" data-tags="cloud-ul, upload" />
<glyph unicode="&#xe008;" d="M 239.52,315.856l 56.64,0.00 l0.00-50.208 l0.00-61.472 l 69.344,2.048l-97.664-91.84l-97.664,91.84l 69.344-2.048
	L 239.52,315.856 z M 419.552,251.296c 0.048,1.312, 0.064,2.608, 0.064,3.92c0.00,71.12-56.88,128.784-127.04,128.784c-53.104,0.00-98.608-33.04-117.584-79.968
	c-11.104,8.528-25.072,13.616-40.256,13.616c-36.144,0.00-65.44-28.832-65.44-64.384c0.00-1.76, 0.064-3.504, 0.208-5.232
	C 29.456,237.216,0.00,200.864,0.00,157.664C0.00,105.92, 42.224,64.00, 94.32,64.00l 1.936,0.00 l 319.504,0.00 l 1.936,0.00 C 469.776,64.00, 512.00,105.92, 512.00,157.664
	C 512.00,208.768, 470.784,250.32, 419.552,251.296z" data-tags="cloud-dl, download" />
<glyph unicode="&#xe009;" d="M 64.48,273.712c0.00,79.104, 65.60,143.248, 146.528,143.248c 80.928,0.00, 146.528-64.144, 146.528-143.248
	c0.00-79.12-65.616-143.264-146.528-143.264C 130.064,130.448, 64.48,194.592, 64.48,273.712z M0.00,273.712c0.00-113.936, 94.464-206.304, 211.008-206.304
	c 33.392,0.00, 64.976,7.584, 93.04,21.088l 105.664-110.576c 12.00-12.56, 36.832-13.36, 49.664-1.60l 42.464,38.912c 12.832,11.76, 13.664,36.096, 1.664,48.656
	l-106.80,111.76c 16.144,29.152, 25.296,62.56, 25.296,98.048C 422.00,387.648, 327.536,480.00, 211.008,480.00C 94.464,480.00,0.00,387.648,0.00,273.712z" data-tags="search, magnifier, lookup" />
<glyph unicode="&#xe00a;" d="M 248.48,384.00C 242.32,400.384, 233.12,416.00, 224.00,416.00L 64.00,416.00 C 54.88,416.00, 45.664,400.384, 39.52,384.00L 248.48,384.00 z M 32.00,352.00
	c-16.00,0.00-32.00-16.00-32.00-32.00l0.00-256.00 c0.00-32.00, 32.00-64.00, 64.00-64.00l 384.00,0.00 c 32.00,0.00, 64.00,32.00, 64.00,64.00L 512.00,288.00 c0.00,32.00-32.00,64.00-64.00,64.00L 256.00,352.00 L 32.00,352.00 z" data-tags="folder, directory, category" />
<glyph unicode="&#xe00b;" d="M 128.00,320.00l 64.00,0.00 l0.00-288.00 L 128.00,32.00 L 128.00,320.00 z M 224.00,320.00l 64.00,0.00 l0.00-288.00 l-64.00,0.00 L 224.00,320.00 z M 320.00,320.00l 64.00,0.00 l0.00-288.00 l-64.00,0.00 L 320.00,320.00 z M 32.00,416.00l0.00-64.00 l 32.00,0.00 l0.00-320.00 c0.00-32.00, 32.00-64.00, 64.00-64.00
	l 256.00,0.00 c 32.00,0.00, 64.00,32.00, 64.00,64.00L 448.00,352.00 l 32.00,0.00 L 480.00,416.00 l-128.00,0.00 L 352.00,480.00 L 160.00,480.00 l0.00-64.00 L 32.00,416.00 z" data-tags="trashcan, bin, delete, remove, garbage" />
<glyph unicode="&#xe00c;" d="M 64.00,172.80C 64.00,285.904, 256.00,480.00, 256.00,480.00s 192.00-194.096, 192.00-307.20S 362.032-32.00, 256.00-32.00
	C 149.968-32.00, 64.00,59.68, 64.00,172.80z" data-tags="droplet, water, color" />
<glyph unicode="&#xe00d;" d="M 319.168,340.352c0.00,29.376, 23.808,53.20, 53.184,53.20c 29.392,0.00, 53.20-23.824, 53.20-53.20
	s-23.808-53.184-53.20-53.184C 342.992,287.168, 319.168,310.992, 319.168,340.352z M0.00,145.312L 177.312-32.00l 301.44,301.44
	c 44.336,44.336, 44.336,132.992,0.00,177.312s-132.992,44.336-177.312,0.00L0.00,145.312z" data-tags="tag, price" />
<glyph unicode="&#xe00e;" d="M0.00,116.432C 44.624,28.368, 135.984-32.00, 241.456-32.00C 390.88-32.00, 512.00,89.12, 512.00,238.544
	C 512.00,344.016, 451.632,435.376, 363.568,480.00c 18.592-36.688, 29.072-78.16, 29.072-122.096c0.00-149.408-121.104-270.56-270.544-270.56
	C 78.16,87.344, 36.688,97.84,0.00,116.432z" data-tags="moon, night, sleep" />
<glyph unicode="&#xe00f;" d="M 146.288,224.00c0.00,58.912, 49.12,106.672, 109.712,106.672s 109.712-47.76, 109.712-106.672
	s-49.12-106.672-109.712-106.672S 146.288,165.088, 146.288,224.00z M0.00,220.16C 47.408,127.424, 143.392,64.00, 254.112,64.00C 367.84,64.00, 466.064,130.96, 512.00,227.84
	C 464.592,320.576, 368.592,384.00, 257.888,384.00C 144.16,384.00, 45.952,317.04,0.00,220.16z M 201.136,224.00c0.00-29.456, 24.56-53.328, 54.864-53.328s 54.864,23.872, 54.864,53.328
	S 286.304,277.328, 256.00,277.328S 201.136,253.456, 201.136,224.00z" data-tags="eye, views" />
<glyph unicode="&#xe010;" d="M 66.72,256.00C 80.208,336.40, 143.616,399.792, 224.00,413.28L 224.00,320.00 l 64.00,0.00 L 288.00,413.28 
	c 80.384-13.488, 143.792-76.88, 157.28-157.28L 352.00,256.00 l0.00-64.00 l 93.28,0.00 c-13.488-80.40-76.896-143.792-157.28-157.28L 288.00,128.00 l-64.00,0.00 l0.00-93.28 C 143.616,48.208, 80.208,111.60, 66.72,192.00L 160.00,192.00 
	l0.00,64.00 L 66.72,256.00 z M0.00,224.00c0.00-141.392, 114.608-256.00, 256.00-256.00s 256.00,114.608, 256.00,256.00S 397.392,480.00, 256.00,480.00S0.00,365.392,0.00,224.00z" data-tags="target, goal, location" />
<glyph unicode="&#xe011;" d="M 416.656,351.024C 444.32,316.112, 460.80,271.984, 460.80,224.00c0.00-113.104-91.68-204.80-204.80-204.80
	c-46.864,0.00-90.048,15.728-124.576,42.208L 416.656,351.024z M 51.20,224.00C 51.20,337.104, 142.896,428.80, 256.00,428.80c 46.864,0.00, 90.032-15.728, 124.544-42.208L 95.328,96.976
	C 67.696,131.872, 51.20,176.016, 51.20,224.00z M0.00,224.00c0.00-141.392, 114.608-256.00, 256.00-256.00s 256.00,114.608, 256.00,256.00S 397.392,480.00, 256.00,480.00S0.00,365.392,0.00,224.00z" data-tags="blocked, denied, forbidden" />
<glyph unicode="&#xe012;" d="M 224.00,448.00l0.00-224.00 l 64.00,0.00 L 288.00,448.00 L 224.00,448.00 z M 32.00,192.00c0.00-123.712, 100.288-224.00, 224.00-224.00c 123.712,0.00, 224.00,100.288, 224.00,224.00
	c0.00,101.472-67.472,187.184-160.00,214.72l0.00-68.00 c 56.496-24.688, 96.00-81.104, 96.00-146.72c0.00-88.368-71.632-160.00-160.00-160.00c-88.368,0.00-160.00,71.632-160.00,160.00
	c0.00,65.616, 39.488,122.032, 96.00,146.72L 192.00,406.72 C 99.472,379.184, 32.00,293.472, 32.00,192.00z" data-tags="switch, power" />
<glyph unicode="&#xe013;" d="M 64.00,224.00C 64.00,330.032, 149.968,416.00, 256.00,416.00c 106.032,0.00, 192.00-85.968, 192.00-192.00c0.00-106.032-85.968-192.00-192.00-192.00
	C 149.968,32.00, 64.00,117.968, 64.00,224.00z M0.00,224.00c0.00-141.392, 114.608-256.00, 256.00-256.00s 256.00,114.608, 256.00,256.00S 397.392,480.00, 256.00,480.00S0.00,365.392,0.00,224.00z M 192.00,224.00c0.00,35.344, 28.656,64.00, 64.00,64.00
	c 35.344,0.00, 64.00-28.656, 64.00-64.00s-28.656-64.00-64.00-64.00C 220.656,160.00, 192.00,188.656, 192.00,224.00z M 128.00,224.00c0.00-70.688, 57.312-128.00, 128.00-128.00c 70.688,0.00, 128.00,57.312, 128.00,128.00s-57.312,128.00-128.00,128.00
	C 185.312,352.00, 128.00,294.688, 128.00,224.00z" data-tags="goal, target, circles" />
<glyph unicode="&#xe014;" d="M 158.784,296.80c0.00,51.888, 43.52,93.952, 97.216,93.952s 97.216-42.064, 97.216-93.952
	c0.00-51.872-43.536-93.936-97.216-93.936S 158.784,244.928, 158.784,296.80z M 64.00,294.464C 64.00,191.984, 256.00-32.00, 256.00-32.00s 192.00,223.984, 192.00,326.464
	C 448.00,396.928, 362.032,480.00, 256.00,480.00C 149.968,480.00, 64.00,396.928, 64.00,294.464z" data-tags="location, pin, map marker, marker" />
<glyph unicode="&#xe015;" d="M 80.00,400.00c-22.00-22.00-22.00-66.00,0.00-88.00l 88.00-88.00L 80.00,136.00
	c-22.00-22.00-22.00-66.00,0.00-88.00s 66.00-22.00, 88.00,0.00l 88.00,88.00l 88.00-88.00c 22.00-22.00, 66.00-22.00, 88.00,0.00s 22.00,66.00,0.00,88.00L 344.00,224.00
	l 88.00,88.00c 22.00,22.00, 22.00,66.00,0.00,88.00s-66.00,22.00-88.00,0.00L 256.00,312.00L 168.00,400.00C 146.00,422.00, 102.00,422.00, 80.00,400.00z" data-tags="close, cancel, multiply, arithmetic" />
<glyph unicode="&#xe016;" d="M 448.00,432.00L 196.64,203.36L 96.00,304.00L0.00,208.00L 192.00,16.00L 512.00,368.00 z" data-tags="checkmark, tick" />
<glyph unicode="&#xe017;" d="M 128.00,224.00c0.00,16.00, 16.00,32.00, 32.00,32.00l 192.00,0.00 c 16.00,0.00, 32.00-16.00, 32.00-32.00s-16.00-32.00-32.00-32.00L 160.00,192.00 C 144.00,192.00, 128.00,208.00, 128.00,224.00z M0.00,224.00
	c0.00-141.392, 114.608-256.00, 256.00-256.00s 256.00,114.608, 256.00,256.00S 397.392,480.00, 256.00,480.00S0.00,365.392,0.00,224.00z" data-tags="munis, remove, delete" />
<glyph unicode="&#xe018;" d="M 256.00,96.00c-16.00,0.00-32.00,16.00-32.00,32.00l0.00,64.00 l-64.00,0.00 c-16.00,0.00-32.00,16.00-32.00,32.00s 16.00,32.00, 32.00,32.00l 64.00,0.00 l0.00,64.00 c0.00,16.00, 16.00,32.00, 32.00,32.00s 32.00-16.00, 32.00-32.00l0.00-64.00 l 64.00,0.00 
	c 16.00,0.00, 32.00-16.00, 32.00-32.00s-16.00-32.00-32.00-32.00l-64.00,0.00 l0.00-64.00 C 288.00,112.00, 272.00,96.00, 256.00,96.00z M0.00,224.00c0.00-141.392, 114.624-256.00, 256.00-256.00c 141.376,0.00, 256.00,114.608, 256.00,256.00S 397.376,480.00, 256.00,480.00
	C 114.624,480.00,0.00,365.392,0.00,224.00z" data-tags="plus, add" />
<glyph unicode="&#xe019;" d="M 344.00,136.00c-11.008-11.008-32.992-11.008-44.00,0.00L 256.00,180.00l-44.00-44.00
	c-11.008-11.008-33.008-11.008-44.016,0.00c-10.992,11.008-10.992,32.992,0.00,44.00L 212.00,224.00l-44.016,44.00c-10.992,11.008-10.992,32.992,0.00,44.00
	c 11.008,11.008, 33.008,11.008, 44.016,0.00L 256.00,268.00l 44.00,44.00c 11.008,11.008, 32.992,11.008, 44.00,0.00s 11.008-32.992,0.00-44.00L 300.00,224.00l 44.00-44.00
	C 355.008,168.992, 355.008,147.008, 344.00,136.00z M 80.00,48.00c 97.20-97.20, 254.80-97.20, 352.00,0.00s 97.20,254.80,0.00,352.00S 177.20,497.20, 80.00,400.00
	S-17.20,145.20, 80.00,48.00z" data-tags="close, cancel, multiply" />
<glyph unicode="&#xe01a;" d="M 192.00,32.00c0.00-35.344, 28.656-64.00, 64.00-64.00c 35.344,0.00, 64.00,28.656, 64.00,64.00s-28.656,64.00-64.00,64.00
	C 220.656,96.00, 192.00,67.344, 192.00,32.00z M 192.00,416.00c0.00-35.344, 28.656-64.00, 64.00-64.00c 35.344,0.00, 64.00,28.656, 64.00,64.00c0.00,35.344-28.656,64.00-64.00,64.00C 220.656,480.00, 192.00,451.344, 192.00,416.00z M0.00,224.00
	c0.00-32.00, 32.00-64.00, 64.00-64.00l 384.00,0.00 c 32.00,0.00, 64.00,32.00, 64.00,64.00s-32.00,64.00-64.00,64.00L 64.00,288.00 C 32.00,288.00,0.00,256.00,0.00,224.00z" data-tags="divide, arithmetic" />
<glyph unicode="&#xe01b;" d="M0.00,224.00c0.00,32.00, 32.00,64.00, 64.00,64.00l 384.00,0.00 c 32.00,0.00, 64.00-32.00, 64.00-64.00s-32.00-64.00-64.00-64.00L 64.00,160.00 C 32.00,160.00,0.00,192.00,0.00,224.00z" data-tags="minus, subtract, remove, delete, arithmetic" />
<glyph unicode="&#xe01c;" d="M 256.00,480.00c-32.00,0.00-64.00-32.00-64.00-64.00l0.00-128.00 L 64.00,288.00 c-32.00,0.00-64.00-32.00-64.00-64.00s 32.00-64.00, 64.00-64.00l 128.00,0.00 l0.00-128.00 c0.00-32.00, 32.00-64.00, 64.00-64.00s 64.00,32.00, 64.00,64.00l0.00,128.00 l 128.00,0.00 
	c 32.00,0.00, 64.00,32.00, 64.00,64.00s-32.00,64.00-64.00,64.00l-128.00,0.00 L 320.00,416.00 C 320.00,448.00, 288.00,480.00, 256.00,480.00z" data-tags="plus, add, sum, arithmetic" />
<glyph unicode="&#xe01d;" d="M0.00,96.00c0.00-32.00, 32.00-64.00, 64.00-64.00l 384.00,0.00 c 32.00,0.00, 64.00,32.00, 64.00,64.00s-32.00,64.00-64.00,64.00L 64.00,160.00 C 32.00,160.00,0.00,128.00,0.00,96.00z M0.00,352.00c0.00-32.00, 32.00-64.00, 64.00-64.00l 384.00,0.00 
	c 32.00,0.00, 64.00,32.00, 64.00,64.00s-32.00,64.00-64.00,64.00L 64.00,416.00 C 32.00,416.00,0.00,384.00,0.00,352.00z" data-tags="equals, calculate, arithmetic" />
<glyph unicode="&#xe01e;" d="M 134.992,326.40L 153.60,345.008c 9.328,9.312, 27.936,9.312, 37.248,0.00L 256.00,279.856l 65.152,65.152
	c 9.312,9.312, 27.936,9.312, 37.248,0.00L 377.008,326.40c 9.312-9.312, 9.312-27.936,0.00-37.248L 311.84,224.00l 65.168-65.152
	c 9.312-9.312, 9.312-27.936,0.00-37.248L 358.40,102.992c-9.312-9.312-27.936-9.312-37.248,0.00L 256.00,168.144l-65.168-65.152
	c-9.312-9.312-27.92-9.312-37.248,0.00L 134.992,121.60c-9.312,9.312-9.312,27.936,0.00,37.248L 200.144,224.00l-65.152,65.152
	C 125.664,298.464, 125.664,317.088, 134.992,326.40z M0.00,224.00c0.00-141.392, 114.608-256.00, 256.00-256.00c 141.376,0.00, 256.00,114.608, 256.00,256.00S 397.376,480.00, 256.00,480.00C 114.608,480.00,0.00,365.392,0.00,224.00z" data-tags="cancel, close, dismiss, multiply" />
<glyph unicode="&#xe01f;" d="M 128.00,224.00c0.00,16.00, 16.00,32.00, 32.00,32.00l 192.00,0.00 c 16.00,0.00, 32.00-16.00, 32.00-32.00s-16.00-32.00-32.00-32.00L 160.00,192.00 C 144.00,192.00, 128.00,208.00, 128.00,224.00z M0.00,224.00
	c0.00-141.392, 114.608-256.00, 256.00-256.00s 256.00,114.608, 256.00,256.00c0.00,141.376-114.608,256.00-256.00,256.00S0.00,365.376,0.00,224.00z" data-tags="minus, remove, delete" />
<glyph unicode="&#xe020;" d="M 156.00,155.072L 96.00,214.16l 60.00,59.072l 62.896-61.936L 376.00,352.00l 40.00-39.392L 216.00,96.00L 176.00,135.376
	L 156.00,155.072z M0.00,224.00c0.00-141.392, 114.608-256.00, 256.00-256.00c 141.376,0.00, 256.00,114.608, 256.00,256.00c0.00,141.376-114.624,256.00-256.00,256.00C 114.608,480.00,0.00,365.376,0.00,224.00z" data-tags="checkmark, tick" />
<glyph unicode="&#xe021;" d="M 128.00,160.00c0.00,16.00, 16.00,32.00, 32.00,32.00l 192.00,0.00 c 16.00,0.00, 32.00-16.00, 32.00-32.00s-16.00-32.00-32.00-32.00L 160.00,128.00 C 144.00,128.00, 128.00,144.00, 128.00,160.00z M 128.00,288.00c0.00,16.00, 16.00,32.00, 32.00,32.00
	l 192.00,0.00 c 16.00,0.00, 32.00-16.00, 32.00-32.00s-16.00-32.00-32.00-32.00L 160.00,256.00 C 144.00,256.00, 128.00,272.00, 128.00,288.00z M0.00,224.00c0.00-141.392, 114.608-256.00, 256.00-256.00s 256.00,114.608, 256.00,256.00c0.00,141.376-114.608,256.00-256.00,256.00S0.00,365.376,0.00,224.00z" data-tags="equals, calculate" />
<glyph unicode="&#xe022;" d="M 195.296,464.00l 21.664-195.504L 18.512,323.776L0.00,212.72l 188.992-14.784l-121.92-159.152L 175.248-16.00
	l 78.656,172.944L 341.536-16.00l 105.024,54.784l-124.56,159.152L 512.00,212.72l-14.752,111.056l-203.248-55.28L 315.68,464.00L 195.296,464.00 L 195.296,464.00z" data-tags="asterisk, snowflake, star" />
<glyph unicode="&#xe023;" d="M 192.00,448.00l 96.00,0.00 l0.00-32.00 l-96.00,0.00 L 192.00,448.00 z M 128.00,384.00l 224.00,0.00 l0.00-320.00 L 128.00,64.00 L 128.00,384.00 z M 224.00,32.00l 32.00,0.00 l0.00-32.00 l-32.00,0.00 L 224.00,32.00 z M 128.00,480.00C 112.00,480.00, 96.00,464.00, 96.00,448.00l0.00-448.00 
	c0.00-16.00, 16.00-32.00, 32.00-32.00l 224.00,0.00 c 16.00,0.00, 32.00,16.00, 32.00,32.00L 384.00,448.00 c0.00,16.00-16.00,32.00-32.00,32.00L 128.00,480.00 z" data-tags="mobile, phone, cellular" />
<glyph unicode="&#xe024;" d="M 32.00,448.00l 416.00,0.00 l0.00-384.00 L 32.00,64.00 L 32.00,448.00 z M 224.00,32.00l 32.00,0.00 l0.00-32.00 l-32.00,0.00 L 224.00,32.00 z M0.00,32.00c0.00-32.00, 32.00-64.00, 64.00-64.00l 352.00,0.00 c 32.00,0.00, 64.00,32.00, 64.00,64.00L 480.00,416.00 
	c0.00,32.00-32.00,64.00-64.00,64.00L 64.00,480.00 C 32.00,480.00,0.00,448.00,0.00,416.00L0.00,32.00 z" data-tags="tablet, touch" />
<glyph unicode="&#xe025;" d="M 352.00,416.00L 160.00,416.00 L 160.00,448.00 c0.00,16.00-16.00,32.00-32.00,32.00S 96.00,464.00, 96.00,448.00l0.00-416.00 c0.00-32.00, 32.00-64.00, 64.00-64.00l 192.00,0.00 c 32.00,0.00, 64.00,32.00, 64.00,64.00L 416.00,352.00 C 416.00,384.00, 384.00,416.00, 352.00,416.00z
	 M 192.00,0.00L 128.00,0.00 l0.00,64.00 l 64.00,0.00 L 192.00,0.00 z M 192.00,96.00L 128.00,96.00 l0.00,64.00 l 64.00,0.00 L 192.00,96.00 z M 192.00,192.00L 128.00,192.00 l0.00,64.00 l 64.00,0.00 L 192.00,192.00 z M 288.00,0.00l-64.00,0.00 l0.00,64.00 l 64.00,0.00 L 288.00,0.00 z M 288.00,96.00l-64.00,0.00 l0.00,64.00 l 64.00,0.00 L 288.00,96.00 z M 288.00,192.00l-64.00,0.00 l0.00,64.00 l 64.00,0.00 L 288.00,192.00 z M 384.00,0.00l-64.00,0.00 l0.00,64.00 l 64.00,0.00 
	L 384.00,0.00 z M 384.00,96.00l-64.00,0.00 l0.00,64.00 l 64.00,0.00 L 384.00,96.00 z M 384.00,192.00l-64.00,0.00 l0.00,64.00 l 64.00,0.00 L 384.00,192.00 z M 384.00,288.00L 128.00,288.00 L 128.00,384.00 l 32.00,0.00 l 224.00,0.00 L 384.00,288.00 z" data-tags="phone, cellular, mobile" />
<glyph unicode="&#xe026;" d="M 416.00,480.00l0.00-512.00 l 64.00,0.00 L 480.00,480.00 L 416.00,480.00 z M 320.00,384.00l0.00-416.00 l 64.00,0.00 L 384.00,384.00 L 320.00,384.00 z M 224.00,288.00l0.00-320.00 l 64.00,0.00 L 288.00,288.00 L 224.00,288.00 z M 128.00,192.00l0.00-224.00 l 64.00,0.00 L 192.00,192.00 L 128.00,192.00 z M 32.00,96.00l0.00-128.00 l 64.00,0.00 
	l0.00,128.00 L 32.00,96.00 z" data-tags="bars, stats, chart" />
<glyph unicode="&#xe027;" d="M 128.00,224.00l0.00-64.00 l 256.00,0.00 l0.00,64.00 L 128.00,224.00 z M 64.00,352.00l0.00-64.00 l 384.00,0.00 L 448.00,352.00 L 64.00,352.00 z M0.00,480.00l0.00-64.00 l 512.00,0.00 L 512.00,480.00 L0.00,480.00 z M 192.00,32.00c0.00-35.344, 28.656-64.00, 64.00-64.00
	c 35.344,0.00, 64.00,28.656, 64.00,64.00s-28.656,64.00-64.00,64.00C 220.656,96.00, 192.00,67.344, 192.00,32.00z" data-tags="stack" />
<glyph unicode="&#xe028;" d="M 32.00,352.00l 416.00,0.00 l0.00-64.00 l0.00-128.00 l0.00-64.00 L 32.00,96.00 L 32.00,352.00 z M 64.00,384.00c-32.00,0.00-64.00-32.00-64.00-64.00l0.00-192.00 c0.00-32.00, 32.00-64.00, 64.00-64.00l 352.00,0.00 c 32.00,0.00, 64.00,32.00, 64.00,64.00l0.00,32.00 l 32.00,0.00 l0.00,128.00 l-32.00,0.00 
	l0.00,32.00 c0.00,32.00-32.00,64.00-64.00,64.00L 64.00,384.00 z M 64.00,320.00l0.00-192.00 l 352.00,0.00 L 64.00,320.00z" data-tags="battery" />
<glyph unicode="&#xe029;" d="M 192.00,128.00c 16.00,0.00, 32.00,16.00, 32.00,32.00l0.00,128.00 c0.00,16.00-16.00,32.00-32.00,32.00s-32.00-16.00-32.00-32.00l0.00-128.00 C 160.00,144.00, 176.00,128.00, 192.00,128.00zM 96.00,128.00c 16.00,0.00, 32.00,16.00, 32.00,32.00l0.00,128.00 c0.00,16.00-16.00,32.00-32.00,32.00s-32.00-16.00-32.00-32.00l0.00-128.00 C 64.00,144.00, 80.00,128.00, 96.00,128.00zM 480.00,288.00l0.00,32.00 c0.00,32.00-32.00,64.00-64.00,64.00L 64.00,384.00 c-32.00,0.00-64.00-32.00-64.00-64.00l0.00-192.00 c0.00-32.00, 32.00-64.00, 64.00-64.00l 352.00,0.00 c 32.00,0.00, 64.00,32.00, 64.00,64.00l0.00,32.00 l 32.00,0.00 l0.00,128.00 L 480.00,288.00 z M 448.00,96.00L 32.00,96.00 L 32.00,352.00 l 416.00,0.00 L 448.00,96.00 z" data-tags="battery" />
<glyph unicode="&#xe02a;" d="M 32.00,352.00l 416.00,0.00 l0.00-256.00 L 32.00,96.00 L 32.00,352.00 z M 64.00,384.00c-32.00,0.00-64.00-32.00-64.00-64.00l0.00-192.00 c0.00-32.00, 32.00-64.00, 64.00-64.00l 352.00,0.00 c 32.00,0.00, 64.00,32.00, 64.00,64.00l0.00,32.00 l 32.00,0.00 l0.00,128.00 l-32.00,0.00 l0.00,32.00 
	c0.00,32.00-32.00,64.00-64.00,64.00L 64.00,384.00 z M 64.00,320.00l0.00-192.00 l 352.00,0.00 L 416.00,320.00 L 64.00,320.00 z" data-tags="battery, full" />
<glyph unicode="&#xe02b;" d="M 96.00,352.00c0.00,32.00, 32.00,64.00, 64.00,64.00l 192.00,0.00 c 32.00,0.00, 64.00-32.00, 64.00-64.00s-32.00-64.00-64.00-64.00L 160.00,288.00 C 128.00,288.00, 96.00,320.00, 96.00,352.00z M 96.00,224.00l 64.00,0.00 l0.00-64.00 L 96.00,160.00 L 96.00,224.00 z
	 M 224.00,224.00l 64.00,0.00 l0.00-64.00 l-64.00,0.00 L 224.00,224.00 z M 352.00,224.00l 64.00,0.00 l0.00-64.00 l-64.00,0.00 L 352.00,224.00 z M 352.00,96.00l 64.00,0.00 l0.00-64.00 l-64.00,0.00 L 352.00,96.00 z M 224.00,96.00l 64.00,0.00 l0.00-64.00 l-64.00,0.00 L 224.00,96.00 z M 96.00,96.00l 64.00,0.00 l0.00-64.00 L 96.00,32.00 L 96.00,96.00 z M 32.00,416.00l0.00-384.00 c0.00-32.00, 32.00-64.00, 64.00-64.00l 320.00,0.00 c 32.00,0.00, 64.00,32.00, 64.00,64.00L 480.00,416.00 
	c0.00,32.00-32.00,64.00-64.00,64.00L 96.00,480.00 C 64.00,480.00, 32.00,448.00, 32.00,416.00z" data-tags="calculator, math, arithmetic" />
<glyph unicode="&#xe02c;" d="M 384.00,480.00L 128.00,257.60l 138.656-74.144L 128.00-32.00l 256.00,222.40l-106.656,74.144L 384.00,480.00z" data-tags="bolt, power, electricity, lightning" />
<glyph unicode="&#xe02d;" d="M 256.00,32.00l0.00-64.00 l 352.00,0.00 l0.00,64.00 L 256.00,32.00 z M 256.00,160.00l0.00-64.00 l 352.00,0.00 l0.00,64.00 L 256.00,160.00 z M 256.00,352.00l0.00-64.00 l 352.00,0.00 L 608.00,352.00 L 256.00,352.00 z M 256.00,480.00l0.00-64.00 l 352.00,0.00 L 608.00,480.00 L 256.00,480.00 z M0.00,160.00
	l0.00-192.00 l 192.00,0.00 L 192.00,160.00 L0.00,160.00 z M0.00,480.00l0.00-192.00 l 192.00,0.00 L 192.00,480.00 L0.00,480.00 z" horiz-adv-x="608" data-tags="list" />
<glyph unicode="&#xe02e;" d="M 384.00,64.00l0.00-96.00 l 96.00,0.00 l0.00,96.00 L 384.00,64.00 z M 192.00,64.00l0.00-96.00 l 96.00,0.00 l0.00,96.00 L 192.00,64.00 z M0.00,64.00l0.00-96.00 l 96.00,0.00 l0.00,96.00 L0.00,64.00 z M 384.00,256.00l0.00-96.00 l 96.00,0.00 l0.00,96.00 L 384.00,256.00 z M 192.00,256.00l0.00-96.00 
	l 96.00,0.00 l0.00,96.00 L 192.00,256.00 z M0.00,256.00l0.00-96.00 l 96.00,0.00 l0.00,96.00 L0.00,256.00 z M 384.00,448.00l0.00-96.00 l 96.00,0.00 L 480.00,448.00 L 384.00,448.00 z M 192.00,448.00l0.00-96.00 l 96.00,0.00 L 288.00,448.00 L 192.00,448.00 z M0.00,448.00l0.00-96.00 l 96.00,0.00 L 96.00,448.00 L0.00,448.00 z" data-tags="grid" />
<glyph unicode="&#xe02f;" d="M0.00,256.00l0.00-96.00 l 512.00,0.00 l0.00,96.00 L0.00,256.00 z M0.00,64.00l0.00-96.00 l 512.00,0.00 l0.00,96.00 L0.00,64.00 z M0.00,448.00l0.00-96.00 l 512.00,0.00 L 512.00,448.00 L0.00,448.00 z" data-tags="list, lines, menu" />
<glyph unicode="&#xe030;" d="M0.00,64.00l0.00-96.00 l 96.00,0.00 l0.00,96.00 L0.00,64.00 z M0.00,256.00l0.00-96.00 l 96.00,0.00 l0.00,96.00 L0.00,256.00 z M0.00,448.00l0.00-96.00 l 96.00,0.00 L 96.00,448.00 L0.00,448.00 z M 160.00,256.00l0.00-96.00 l 352.00,0.00 l0.00,96.00 L 160.00,256.00 z M 160.00,64.00l0.00-96.00 l 352.00,0.00 l0.00,96.00 
	L 160.00,64.00 z M 160.00,448.00l0.00-96.00 l 352.00,0.00 L 512.00,448.00 L 160.00,448.00 z" data-tags="list" />
<glyph unicode="&#xe031;" d="M 192.00,288.00l0.00-320.00 l 320.00,0.00 L 512.00,288.00 L 192.00,288.00 z M 192.00,480.00l0.00-128.00 l 320.00,0.00 L 512.00,480.00 L 192.00,480.00 z M0.00,480.00l0.00-512.00 l 128.00,0.00 L 128.00,480.00 L0.00,480.00 z" data-tags="layout" />
<glyph unicode="&#xe032;" d="M 64.00,448.00l 64.00,0.00 l0.00-224.00 l 32.00,0.00 l0.00-128.00 L 128.00,96.00 l0.00-64.00 L 64.00,32.00 l0.00,64.00 L 32.00,96.00 l0.00,128.00 l 32.00,0.00 L 64.00,448.00 z M 384.00,448.00l 64.00,0.00 l0.00-224.00 l 32.00,0.00 l0.00-128.00 l-32.00,0.00 l0.00-64.00 l-64.00,0.00 l0.00,64.00 l-32.00,0.00 l0.00,128.00 l 32.00,0.00 L 384.00,448.00 z M 224.00,448.00l 64.00,0.00 l0.00-64.00 
	l 32.00,0.00 l0.00-128.00 l-32.00,0.00 l0.00-224.00 l-64.00,0.00 L 224.00,256.00 l-32.00,0.00 L 192.00,384.00 l 32.00,0.00 L 224.00,448.00 z M 64.00,480.00C 32.00,480.00,0.00,448.00,0.00,416.00l0.00-384.00 c0.00-32.00, 32.00-64.00, 64.00-64.00l 384.00,0.00 c 32.00,0.00, 64.00,32.00, 64.00,64.00L 512.00,416.00 c0.00,32.00-32.00,64.00-64.00,64.00L 64.00,480.00 z" data-tags="equalizer, options, settings" />
<glyph unicode="&#xe033;" d="M 416.00,256.00l 64.00,0.00 l0.00-32.00 l-64.00,0.00 L 416.00,256.00 z M 416.00,480.00l0.00-192.00 l-32.00,0.00 l0.00-96.00 l 32.00,0.00 l0.00-224.00 l 64.00,0.00 L 480.00,192.00 l 32.00,0.00 l0.00,96.00 l-32.00,0.00 L 480.00,480.00 L 416.00,480.00 z M 224.00,128.00l 64.00,0.00 l0.00-32.00 l-64.00,0.00 L 224.00,128.00 z M 224.00,480.00
	l0.00-320.00 l-32.00,0.00 l0.00-96.00 l 32.00,0.00 l0.00-96.00 l 64.00,0.00 l0.00,96.00 l 32.00,0.00 l0.00,96.00 l-32.00,0.00 L 288.00,480.00 L 224.00,480.00 z M 32.00,320.00l 64.00,0.00 l0.00-32.00 L 32.00,288.00 L 32.00,320.00 z M 32.00,480.00l0.00-128.00 L0.00,352.00 l0.00-96.00 l 32.00,0.00 l0.00-288.00 l 64.00,0.00 L 96.00,256.00 l 32.00,0.00 L 128.00,352.00 L 96.00,352.00 L 96.00,480.00 L 32.00,480.00 z" data-tags="equalizer, options, settings" />
<glyph unicode="&#xe034;" d="M 182.864,224.00c0.00,40.384, 32.736,73.136, 73.136,73.136c 40.40,0.00, 73.136-32.752, 73.136-73.136
	c0.00-40.40-32.736-73.136-73.136-73.136C 215.60,150.864, 182.864,183.60, 182.864,224.00z M 310.864,443.424C 310.864,461.712, 292.56,480.00, 274.288,480.00l-36.56,0.00 
	c-18.288,0.00-36.576-18.288-36.576-36.576l0.00-51.20 c0.00-18.288-12.928-23.648-25.856-10.704L 139.232,417.568c-12.928,12.944-38.80,12.944-51.712,0.00L 62.432,392.48
	c-12.928-12.928-12.928-38.784,0.00-51.712l 36.048-36.048c 12.928-12.928, 7.568-25.856-10.704-25.856l-51.20,0.00 C 18.288,278.864,0.00,260.576,0.00,242.288l0.00-36.56 
	c0.00-18.288, 18.288-36.576, 36.576-36.576l 51.20,0.00 c 18.288,0.00, 23.648-12.928, 10.704-25.856l-36.048-36.048c-12.928-12.944-12.928-38.80,0.00-51.728l 25.088-25.056
	c 12.928-12.944, 38.784-12.944, 51.712,0.00l 36.048,36.048c 12.928,12.928, 25.856,7.584, 25.856-10.704l0.00-51.216 c0.00-18.288, 18.288-36.56, 36.576-36.56l 36.56,0.00 
	c 18.288,0.00, 36.576,18.288, 36.576,36.56l0.00,51.216 c0.00,18.288, 12.928,23.632, 25.856,10.704l 36.048-36.048c 12.928-12.944, 38.80-12.944, 51.712,0.00l 25.072,25.056
	c 12.944,12.944, 12.944,38.80,0.00,51.728l-36.048,36.048c-12.928,12.944-7.584,25.856, 10.704,25.856l 51.216,0.00 c 18.288,0.00, 36.56,18.304, 36.56,36.576l0.00,36.56 
	c0.00,18.288-18.288,36.576-36.56,36.576l-51.216,0.00 c-18.288,0.00-23.632,12.928-10.704,25.856l 36.048,36.048c 12.944,12.928, 12.944,38.784,0.00,51.712
	L 424.48,417.568c-12.928,12.944-38.80,12.944-51.712,0.00l-36.048-36.048c-12.944-12.928-25.856-7.584-25.856,10.704L 310.864,443.424 z" data-tags="cog, gear, settings, option" />
<glyph unicode="&#xe035;" d="M 64.00,448.00l 32.00,0.00 l0.00-32.00 L 64.00,416.00 L 64.00,448.00 z M 128.00,448.00l 32.00,0.00 l0.00-32.00 L 128.00,416.00 L 128.00,448.00 z M 192.00,448.00l 256.00,0.00 l0.00-32.00 L 192.00,416.00 L 192.00,448.00 z M 480.00,384.00l0.00-328.00 c0.00-28.00-28.00-56.00-56.00-56.00
	l-336.00,0.00 C 60.00,0.00, 32.00,28.00, 32.00,56.00L 32.00,384.00 L 480.00,384.00 z M0.00,416.00l0.00-384.00 c0.00-32.00, 32.00-64.00, 64.00-64.00l 384.00,0.00 c 32.00,0.00, 64.00,32.00, 64.00,64.00L 512.00,416.00 c0.00,32.00-32.00,64.00-64.00,64.00L 64.00,480.00 C 32.00,480.00,0.00,448.00,0.00,416.00z M 64.00,352.00l0.00-256.00 c0.00-32.00, 32.00-64.00, 64.00-64.00l 256.00,0.00 
	c 32.00,0.00, 64.00,32.00, 64.00,64.00L 448.00,352.00 L 64.00,352.00 z" data-tags="window, software, program" />
<glyph unicode="&#xe036;" d="M 64.00,448.00l 32.00,0.00 l0.00-32.00 L 64.00,416.00 L 64.00,448.00 z M 128.00,448.00l 32.00,0.00 l0.00-32.00 L 128.00,416.00 L 128.00,448.00 z M 192.00,448.00l 256.00,0.00 l0.00-32.00 L 192.00,416.00 L 192.00,448.00 z M 480.00,384.00l0.00-328.00 c0.00-28.00-28.00-56.00-56.00-56.00
	l-336.00,0.00 C 60.00,0.00, 32.00,28.00, 32.00,56.00L 32.00,384.00 L 480.00,384.00 z M0.00,416.00l0.00-384.00 c0.00-32.00, 32.00-64.00, 64.00-64.00l 384.00,0.00 c 32.00,0.00, 64.00,32.00, 64.00,64.00L 512.00,416.00 c0.00,32.00-32.00,64.00-64.00,64.00L 64.00,480.00 C 32.00,480.00,0.00,448.00,0.00,416.00z M 136.00,264.00L 208.00,192.00l-72.00-72.00l 48.00-48.00
	L 256.00,144.00l 72.00-72.00l 48.00,48.00L 304.00,192.00l 72.00,72.00l-48.00,48.00L 256.00,240.00l-72.00,72.00L 136.00,264.00z" data-tags="window, software, program, cancel" />
<glyph unicode="&#xe037;" d="M 64.00,448.00l 32.00,0.00 l0.00-32.00 L 64.00,416.00 L 64.00,448.00 z M 128.00,448.00l 32.00,0.00 l0.00-32.00 L 128.00,416.00 L 128.00,448.00 z M 192.00,448.00l 256.00,0.00 l0.00-32.00 L 192.00,416.00 L 192.00,448.00 z M 36.48,36.16
	C 33.616,42.528, 32.00,49.248, 32.00,56.00L 32.00,384.00 l 384.00,0.00 L 36.48,36.16z M 480.00,354.256L 480.00,56.00 c0.00-28.00-28.00-56.00-56.00-56.00L 98.40,0.00 L 480.00,354.256z M0.00,416.00l0.00-384.00 c0.00-32.00, 32.00-64.00, 64.00-64.00l 384.00,0.00 
	c 32.00,0.00, 64.00,32.00, 64.00,64.00L 512.00,384.00 L 512.00,416.00 c0.00,32.00-32.00,64.00-64.00,64.00L 64.00,480.00 C 32.00,480.00,0.00,448.00,0.00,416.00z" data-tags="window, software, program" />
<glyph unicode="&#xe038;" d="M 64.00,448.00l 32.00,0.00 l0.00-32.00 L 64.00,416.00 L 64.00,448.00 z M 128.00,448.00l 32.00,0.00 l0.00-32.00 L 128.00,416.00 L 128.00,448.00 z M 192.00,448.00l 256.00,0.00 l0.00-32.00 L 192.00,416.00 L 192.00,448.00 z M 480.00,384.00l0.00-328.00 c0.00-28.00-28.00-56.00-56.00-56.00
	l-336.00,0.00 C 60.00,0.00, 32.00,28.00, 32.00,56.00L 32.00,384.00 L 480.00,384.00 z M0.00,416.00l0.00-384.00 c0.00-32.00, 32.00-64.00, 64.00-64.00l 384.00,0.00 c 32.00,0.00, 64.00,32.00, 64.00,64.00L 512.00,416.00 c0.00,32.00-32.00,64.00-64.00,64.00L 64.00,480.00 C 32.00,480.00,0.00,448.00,0.00,416.00z" data-tags="window, software, program" />
<glyph unicode="&#xe039;" d="M 224.00,160.00c0.00,16.00, 16.00,32.00, 32.00,32.00s 32.00-16.00, 32.00-32.00l0.00-64.00 c0.00-16.00-16.00-32.00-32.00-32.00s-32.00,16.00-32.00,32.00L 224.00,160.00 z M 384.00,288.00L 128.00,288.00 L 128.00,362.656 
	C 128.00,405.328, 170.672,416.00, 213.328,416.00l 85.328,0.00 C 341.328,416.00, 384.00,405.328, 384.00,362.656L 384.00,288.00 z M 32.00,224.00l0.00-192.00 c0.00-32.00, 32.00-64.00, 64.00-64.00l 320.00,0.00 c 32.00,0.00, 64.00,32.00, 64.00,64.00L 480.00,224.00 
	c0.00,20.896-13.632,41.776-32.00,53.744L 448.00,352.00 c0.00,64.00-64.00,128.00-128.00,128.00l-128.00,0.00 C 128.00,480.00, 64.00,416.00, 64.00,352.00l0.00-74.256 C 45.632,265.776, 32.00,244.896, 32.00,224.00z" data-tags="locked, encrypted" />
<glyph unicode="&#xe03a;" d="M 448.00,277.744L 448.00,352.00 c0.00,64.00-64.00,128.00-128.00,128.00l-128.00,0.00 C 138.768,480.00, 85.52,435.712, 69.12,384.00l 63.36,0.00 
	c 12.032,25.056, 46.448,32.00, 80.864,32.00l 85.328,0.00 C 341.344,416.00, 384.00,405.328, 384.00,362.656L 384.00,288.00 L 64.00,288.00 l0.00-10.256 C 45.632,265.776, 32.00,244.896, 32.00,224.00l0.00-192.00 c0.00-32.00, 32.00-64.00, 64.00-64.00l 320.00,0.00 
	c 32.00,0.00, 64.00,32.00, 64.00,64.00L 480.00,224.00 C 480.00,244.896, 466.368,265.776, 448.00,277.744z M 288.00,96.00c0.00-16.00-16.00-32.00-32.00-32.00s-32.00,16.00-32.00,32.00l0.00,64.00 c0.00,16.00, 16.00,32.00, 32.00,32.00s 32.00-16.00, 32.00-32.00L 288.00,96.00 z" data-tags="unlocked, lock" />
<glyph unicode="&#xe03b;" d="M0.00,480.00l0.00-192.00 c0.00-128.00, 128.00-320.00, 256.00-320.00s 256.00,192.00, 256.00,320.00L 512.00,480.00 l-37.44,0.00 C 461.376,442.72, 425.808,416.00, 384.00,416.00
	c-41.792,0.00-77.376,26.72-90.56,64.00l-74.88,0.00 C 205.376,442.72, 169.808,416.00, 128.00,416.00S 50.624,442.72, 37.44,480.00L0.00,480.00 z" data-tags="shield, guard, security, protection, moderate" />
<glyph unicode="&#xe03c;" d="M 384.00,80.00c0.00-26.496, 21.504-48.00, 48.00-48.00s 48.00,21.504, 48.00,48.00s-21.504,48.00-48.00,48.00S 384.00,106.496, 384.00,80.00z M 160.00,80.00
	c0.00-26.496, 21.488-48.00, 48.00-48.00c 26.496,0.00, 48.00,21.504, 48.00,48.00s-21.504,48.00-48.00,48.00C 181.488,128.00, 160.00,106.496, 160.00,80.00z M 143.20,312.976L 176.00,160.00l 288.00,0.00 l 48.00,224.00L 128.00,384.00 L0.00,416.00l0.00-32.00 L 143.20,312.976
	z" data-tags="cart, shopping, ecommerce, buy" />
<glyph unicode="&#xe03d;" d="M 384.00,96.00c0.00,17.664, 14.336,32.00, 32.00,32.00s 32.00-14.336, 32.00-32.00s-14.336-32.00-32.00-32.00S 384.00,78.336, 384.00,96.00z M 288.00,96.00
	c0.00,17.664, 14.336,32.00, 32.00,32.00s 32.00-14.336, 32.00-32.00s-14.336-32.00-32.00-32.00S 288.00,78.336, 288.00,96.00z M 192.00,96.00c0.00,17.664, 14.336,32.00, 32.00,32.00s 32.00-14.336, 32.00-32.00s-14.336-32.00-32.00-32.00
	S 192.00,78.336, 192.00,96.00z M 32.00,384.00l 448.00,0.00 l0.00-96.00 L 32.00,288.00 L 32.00,384.00 z M0.00,352.00l0.00-288.00 c0.00-32.00, 32.00-64.00, 64.00-64.00l 384.00,0.00 c 32.00,0.00, 64.00,32.00, 64.00,64.00L 512.00,352.00 c0.00,32.00-32.00,64.00-64.00,64.00L 64.00,416.00 C 32.00,416.00,0.00,384.00,0.00,352.00z" data-tags="console, window" />
<glyph unicode="&#xe03e;" d="M 128.00,416.00l 64.00,0.00 l0.00-64.00 L 128.00,352.00 L 128.00,416.00 z M 224.00,416.00l 64.00,0.00 l0.00-64.00 l-64.00,0.00 L 224.00,416.00 z M 320.00,416.00l 64.00,0.00 l0.00-64.00 l-64.00,0.00 L 320.00,416.00 z M 128.00,320.00l 64.00,0.00 l0.00-64.00 L 128.00,256.00 L 128.00,320.00 z M 224.00,320.00l 64.00,0.00 l0.00-64.00 l-64.00,0.00 L 224.00,320.00 z
	 M 128.00,224.00l 64.00,0.00 l0.00-64.00 L 128.00,160.00 L 128.00,224.00 z M 320.00,320.00l 64.00,0.00 l0.00-64.00 l-64.00,0.00 L 320.00,320.00 z M 224.00,224.00l 64.00,0.00 l0.00-64.00 l-64.00,0.00 L 224.00,224.00 z M 320.00,224.00l 64.00,0.00 l0.00-64.00 l-64.00,0.00 L 320.00,224.00 z M 64.00,480.00l0.00-512.00 l 128.00,0.00 l0.00,128.00 l 128.00,0.00 l0.00-128.00 l 128.00,0.00 L 448.00,480.00 L 64.00,480.00 z" data-tags="office, work" />
<glyph unicode="&#xe03f;" d="M 416.00,320.00c0.00,88.352-71.632,160.00-160.00,160.00C 167.632,480.00, 96.00,408.352, 96.00,320.00l 32.00,0.00 c0.00,70.704, 57.312,128.00, 128.00,128.00
	c 70.688,0.00, 128.00-57.296, 128.00-128.00L 416.00,320.00 z M 96.00,288.00L 32.00-32.00l 448.00,0.00 l-64.00,320.00L 96.00,288.00 z" data-tags="basket, cart, ecommerce, shopping, buy" />
<glyph unicode="&#xe040;" d="M 320.00,384.00l-128.00,0.00 L 192.00,416.00 l 128.00,0.00 L 320.00,384.00 z M 96.00-32.00l 320.00,0.00 L 416.00,384.00 l-64.00,0.00 L 352.00,448.00 L 160.00,448.00 l0.00-64.00 L 96.00,384.00 L 96.00-32.00 z M 448.00-32.00c 32.00,0.00, 64.00,32.00, 64.00,64.00L 512.00,320.00 c0.00,32.00-32.00,64.00-64.00,64.00L 448.00-32.00 
	z M0.00,320.00l0.00-288.00 c0.00-32.00, 32.00-64.00, 64.00-64.00L 64.00,384.00 C 32.00,384.00,0.00,352.00,0.00,320.00z" data-tags="suitcase, briefcase, work, travel" />
<glyph unicode="&#xe041;" d="M 169.52,173.744L 136.48,140.352L 47.424,140.352 c-6.656,0.00-9.168-5.216-5.024-10.432l 119.936-151.488
	c 4.128-5.216, 10.272-4.08, 12.256,2.288l 26.576,84.80l 20.40,22.928l 85.536,86.40l 28.688-173.952C 338.496-15.568, 357.84-32.00, 374.464-32.00l 34.976,0.00 
	L 409.44,278.272 l 102.336,103.60L 512.00,414.752c 0.112,16.656-16.40,33.28-33.024,33.248l-39.024-0.096L 307.088,347.20L0.00,347.20 l0.00-35.60 c0.00-16.672, 16.464-35.712, 32.928-38.112
	l 205.92-29.696L 169.52,173.744" data-tags="airplane, plane, travel" />
<glyph unicode="&#xe042;" d="M 281.60,480.00l-208.00,0.00 C 52.80,480.00, 32.00,458.672, 32.00,437.328l0.00-426.656 C 32.00-10.672, 52.80-32.00, 73.60-32.00l 332.80,0.00 
	c 20.784,0.00, 41.60,21.328, 41.60,42.672L 448.00,309.328 L 281.60,480.00z M 176.00,224.00L 176.00,384.00 l 128.00,0.00 l0.00-160.00 l 96.00,0.00 L 240.00,64.00L 80.00,224.00L 176.00,224.00 z" data-tags="file-download, download" />
<glyph unicode="&#xe043;" d="M 281.60,480.00l-208.00,0.00 C 52.80,480.00, 32.00,458.672, 32.00,437.328l0.00-426.656 C 32.00-10.672, 52.80-32.00, 73.60-32.00l 332.80,0.00 
	c 20.784,0.00, 41.60,21.328, 41.60,42.672L 448.00,309.328 L 281.60,480.00z M 304.00,224.00l0.00-160.00 l-128.00,0.00 L 176.00,224.00 L 80.00,224.00 L 240.00,384.00l 160.00-160.00L 304.00,224.00 z" data-tags="file-upload, upload" />
<glyph unicode="&#xe044;" d="M 73.60,480.00C 52.80,480.00, 32.00,458.656, 32.00,437.344l0.00-426.688 C 32.00-10.656, 52.80-32.00, 73.60-32.00l 332.80,0.00 
	c 20.784,0.00, 41.60,21.344, 41.60,42.656L 448.00,309.344 L 281.60,480.00L 73.60,480.00 z" data-tags="file, paper" />
<glyph unicode="&#xe045;" d="M 96.00,256.00l 96.00,0.00 L 192.00,352.00 l 64.00,0.00 l0.00-96.00 l 96.00,0.00 l0.00-64.00 l-96.00,0.00 l0.00-96.00 l-64.00,0.00 l0.00,96.00 L 96.00,192.00 L 96.00,256.00 z M 73.60,480.00C 52.80,480.00, 32.00,458.672, 32.00,437.328l0.00-426.656 
	C 32.00-10.672, 52.80-32.00, 73.60-32.00l 332.80,0.00 c 20.80,0.00, 41.60,21.328, 41.60,42.672L 448.00,309.328 L 281.60,480.00L 73.60,480.00 z" data-tags="file-add, new, add" />
<glyph unicode="&#xe046;" d="M 128.00,256.00l 224.00,0.00 l0.00-64.00 L 128.00,192.00 L 128.00,256.00 z M 73.60,480.00C 52.80,480.00, 32.00,458.672, 32.00,437.328l0.00-426.656 C 32.00-10.672, 52.80-32.00, 73.60-32.00
	l 332.80,0.00 c 20.80,0.00, 41.60,21.328, 41.60,42.672L 448.00,309.328 L 281.60,480.00L 73.60,480.00 z" data-tags="file-remove, delete, remove" />
<glyph unicode="&#xe047;" d="M 32.00,32.00l0.00-32.00 l 448.00,0.00 l0.00,32.00 L 32.00,32.00 z M 192.00,448.00c-16.00,0.00-32.00-16.00-32.00-32.00l0.00-320.00 l 64.00,0.00 L 224.00,416.00 C 224.00,432.00, 208.00,448.00, 192.00,448.00z M 448.00,384.00c-16.00,0.00-32.00-16.00-32.00-32.00
	l0.00-256.00 l 64.00,0.00 L 480.00,352.00 C 480.00,368.00, 464.00,384.00, 448.00,384.00z M 320.00,256.00c-16.00,0.00-32.00-16.00-32.00-32.00l0.00-128.00 l 64.00,0.00 l0.00,128.00 C 352.00,240.00, 336.00,256.00, 320.00,256.00z M 64.00,320.00c-16.00,0.00-32.00-16.00-32.00-32.00l0.00-192.00 l 64.00,0.00 L 96.00,288.00 C 96.00,304.00, 80.00,320.00, 64.00,320.00z" data-tags="bars, chart, stats" />
<glyph unicode="&#xe048;" d="M 256.00,224.00l 201.136,0.00 c0.00-111.088-90.048-201.136-201.136-201.136S 54.864,112.912, 54.864,224.00
	S 144.912,425.136, 256.00,425.136L 256.00,224.00 z M0.00,224.00c0.00-141.392, 114.624-256.00, 256.00-256.00c 141.376,0.00, 256.00,114.608, 256.00,256.00S 397.376,480.00, 256.00,480.00C 114.624,480.00,0.00,365.392,0.00,224.00z" data-tags="chart, pie, stats" />
<glyph unicode="&#xe049;" d="M 64.00,384.00l 384.00,0.00 l0.00-256.00 L 64.00,128.00 L 64.00,384.00 z M 64.00,448.00C 32.00,448.00,0.00,416.00,0.00,384.00l0.00-256.00 c0.00-32.00, 32.00-64.00, 64.00-64.00l 96.00,0.00 l0.00-64.00 c0.00-16.00, 16.00-32.00, 32.00-32.00s 32.00,16.00, 32.00,32.00l0.00,64.00 l 64.00,0.00 l0.00-64.00 
	c0.00-16.00, 16.00-32.00, 32.00-32.00s 32.00,16.00, 32.00,32.00l0.00,64.00 l 96.00,0.00 c 32.00,0.00, 64.00,32.00, 64.00,64.00L 512.00,384.00 c0.00,32.00-32.00,64.00-64.00,64.00L 64.00,448.00 z M 352.00,224.00l0.00-64.00 l 64.00,0.00 l0.00,64.00 L 352.00,224.00 z M 224.00,288.00l0.00-128.00 l 64.00,0.00 l0.00,128.00 L 224.00,288.00 z M 96.00,352.00l0.00-192.00 l 64.00,0.00 L 160.00,352.00 L 96.00,352.00 z" data-tags="stats, bars, monitor" />
<glyph unicode="&#xe04a;" d="M 82.432,152.688l0.00,142.624 l 173.04,0.00 L 255.472,397.568 L 429.568,224.00l-174.08-173.568l0.00,102.256  M0.00,224.00
	c0.00-141.392, 114.608-256.00, 256.00-256.00s 256.00,114.608, 256.00,256.00S 397.392,480.00, 256.00,480.00S0.00,365.392,0.00,224.00z" data-tags="arrow-right, next, right" />
<glyph unicode="&#xe04b;" d="M 429.568,295.312l0.00-142.624 L 256.512,152.688 l0.00-102.256 L 82.432,224.00l 174.08,173.568l0.00-102.256  M 512.00,224.00
	c0.00,141.392-114.608,256.00-256.00,256.00S0.00,365.392,0.00,224.00s 114.608-256.00, 256.00-256.00S 512.00,82.608, 512.00,224.00z" data-tags="arrow-left, previous, left" />
<glyph unicode="&#xe04c;" d="M 184.688,397.568l 142.624,0.00 l0.00-173.04 l 102.256,0.00 L 256.00,50.432L 82.432,224.512l 102.256,0.00  M 256.00,480.00
	C 114.608,480.00,0.00,365.392,0.00,224.00s 114.608-256.00, 256.00-256.00s 256.00,114.608, 256.00,256.00S 397.392,480.00, 256.00,480.00z" data-tags="arrow-down, download, bottom" />
<glyph unicode="&#xe04d;" d="M 327.344,50.416l-142.624,0.00 L 184.72,223.472 L 82.464,223.472 l 173.568,174.08l 173.568-174.08l-102.256,0.00 
	 M 256.016-32.016c 141.392,0.00, 256.00,114.608, 256.00,256.00s-114.608,256.00-256.00,256.00s-256.00-114.608-256.00-256.00S 114.64-32.016, 256.016-32.016z" data-tags="arrow-up, upload, top" />
<glyph unicode="&#xe04e;" d="M 32.00,288.00L 256.00,288.00L 256.00,448.00L 480.00,224.00L 256.00,0.00L 256.00,160.00L 32.00,160.00 z" data-tags="arrow-right, right, next" />
<glyph unicode="&#xe04f;" d="M 480.00,160.00L 256.00,160.00L 256.00,0.00L 32.00,224.00L 256.00,448.00L 256.00,288.00L 480.00,288.00 z" data-tags="arrow-left, left, previous" />
<glyph unicode="&#xe050;" d="M 192.00,0.00L 192.00,224.00L 32.00,224.00L 256.00,448.00L 480.00,224.00L 320.00,224.00L 320.00,0.00 z" data-tags="arrow-up, upload, top" />
<glyph unicode="&#xe051;" d="M 320.00,448.00L 320.00,224.00L 480.00,224.00L 256.00,0.00L 32.00,224.00L 192.00,224.00L 192.00,448.00 z" data-tags="arrow-down, download, bottom" />
<glyph unicode="&#xe052;" d="M 458.032,335.536L 367.536,426.032L 209.136,267.664L 96.00,380.784L 96.00,64.00L 412.784,64.00L 299.648,177.136 z" data-tags="arrow-down-left, down left, bottom left" />
<glyph unicode="&#xe053;" d="M 144.464,426.032L 53.968,335.536L 212.336,177.136L 99.216,64.00L 416.00,64.00L 416.00,380.784L 302.864,267.648 z" data-tags="arrow-down-right, down right, bottom right" />
<glyph unicode="&#xe054;" d="M 367.536,21.968L 458.032,112.464L 299.664,270.864L 412.784,384.00L 96.00,384.00L 96.00,67.216L 209.136,180.352 z" data-tags="arrow-up-left, up left, top left" />
<glyph unicode="&#xe055;" d="M 53.968,112.464L 144.464,21.968L 302.864,180.336L 416.00,67.216L 416.00,384.00L 99.216,384.00L 212.352,270.864 z" data-tags="arrow-up-right, up right, top right" />
<glyph unicode="&#xe056;" d="M 416.00,64.00l-96.00-96.00L 64.00,224.00L 320.00,480.00l 96.00-96.00L 256.00,224.00L 416.00,64.00z" data-tags="arrow-left, left, previous" />
<glyph unicode="&#xe057;" d="M 64.00,64.00l 96.00-96.00l 256.00,256.00L 160.00,480.00L 64.00,384.00l 160.00-160.00L 64.00,64.00z" data-tags="arrow-right, next, right" />
<glyph unicode="&#xe058;" d="M 96.00,384.00l-96.00-96.00l 256.00-256.00l 256.00,256.00l-96.00,96.00L 256.00,224.00L 96.00,384.00z" data-tags="arrow-down, download" />
<glyph unicode="&#xe059;" d="M 96.00,32.00l-96.00,96.00L 256.00,384.00l 256.00-256.00l-96.00-96.00L 256.00,192.00L 96.00,32.00z" data-tags="arrow-up, upload" />
<glyph unicode="&#xe05a;" d="M 176.00,352.00l 160.00,0.00 l-80.00,128.00L 176.00,352.00z M 176.00,96.00l 80.00-128.00l 80.00,128.00L 176.00,96.00 z M 128.00,144.00L 128.00,304.00 l-128.00-80.00L 128.00,144.00z M 384.00,144.00l 128.00,80.00l-128.00,80.00L 384.00,144.00 z" data-tags="move" />
<glyph unicode="&#xe05b;" d="M 196.00,320.00L 256.00,416.00l 60.00-96.00L 196.00,320.00 z M 196.00,128.00l 120.00,0.00 L 256.00,32.00L 196.00,128.00z M 160.00,164.00L 64.00,224.00
	l 96.00,60.00L 160.00,164.00 z M 352.00,164.00l0.00,120.00 L 448.00,224.00L 352.00,164.00z M0.00,224.00c0.00-141.392, 114.608-256.00, 256.00-256.00s 256.00,114.608, 256.00,256.00S 397.392,480.00, 256.00,480.00S0.00,365.392,0.00,224.00z" data-tags="movie, game" />
<glyph unicode="&#xe05c;" d="M 420.528,228.144c-0.064-70.032-40.112-129.36-105.088-155.696
	c-64.272-26.032-133.552-11.936-182.368,36.928l 53.424,53.36L 32.00,162.736 l0.00-154.304 l 59.008,58.944c 66.064-66.144, 159.808-85.184, 246.80-49.952
	c 87.92,35.648, 142.112,115.904, 142.192,210.688L 420.528,228.144z M 91.472,219.856c 0.064,70.032, 40.096,129.36, 105.088,155.68
	c 64.272,26.048, 133.552,11.968, 182.352-36.928l-53.408-53.344L 480.00,285.264 L 480.00,439.568 L 420.992,380.64c-66.064,66.128-159.824,85.184-246.80,49.952
	C 86.256,394.96, 32.08,314.672, 32.00,219.904L 91.472,219.856z" data-tags="refresh, synchronize, reload, reset" />
<glyph unicode="&#xe05d;" d="M 32.00,416.00l 448.00,0.00 l0.00-384.00 L 32.00,32.00 L 32.00,416.00 z M 64.00,448.00C 32.00,448.00,0.00,416.00,0.00,384.00l0.00-320.00 c0.00-32.00, 32.00-64.00, 64.00-64.00l 384.00,0.00 c 32.00,0.00, 64.00,32.00, 64.00,64.00L 512.00,384.00 c0.00,32.00-32.00,64.00-64.00,64.00L 64.00,448.00 z
	 M 64.00,336.00c0.00-26.512, 21.488-48.00, 48.00-48.00c 26.496,0.00, 48.00,21.488, 48.00,48.00S 138.496,384.00, 112.00,384.00C 85.488,384.00, 64.00,362.512, 64.00,336.00z M 448.00,352.00c-0.176,1.488-0.368,0.592-0.48-2.40
	C 447.856,350.64, 448.064,351.408, 448.00,352.00z M 448.00,64.00c0.00,0.00-1.744,252.416-0.48,285.60c-7.632-23.408-113.952-125.424-164.80-188.64L 192.00,256.00c0.00,0.00-128.00-168.00-128.00-160.00l0.00-32.00 
	l 160.00,0.00 l 128.00,0.00 L 448.00,64.00 z" data-tags="picture, photo, image" />
<glyph unicode="&#xe05e;" d="M 480.00,373.504L 472.576,480.00L 124.432,371.296L 128.00,279.92l0.00-157.824 
	c-9.312,1.376-18.56,1.568-27.12,0.496C 59.024,117.408,0.00,76.88,0.00,33.104c0.00-47.088, 67.136-73.232, 114.336-62.864
	c 44.544,9.808, 94.208,56.656, 87.424,96.88L 192.00,92.768L 192.00,279.92 l 224.00,75.968l0.00-172.816 c-12.72,3.024-25.76,4.064-37.504,2.592
	c-41.84-5.168-100.88-45.712-100.88-89.456c0.00-47.088, 67.136-73.248, 114.336-62.88c 44.56,9.792, 94.208,56.656, 87.424,96.88L 480.00,155.152L 480.00,373.504 z" data-tags="music, song, sound, media" />
<glyph unicode="&#xe05f;" d="M 131.664,224.00c0.00,68.672, 55.664,124.336, 124.336,124.336s 124.336-55.664, 124.336-124.336
	S 324.672,99.664, 256.00,99.664S 131.664,155.328, 131.664,224.00z M0.00,224.00c0.00-141.392, 114.608-256.00, 256.00-256.00s 256.00,114.608, 256.00,256.00S 397.392,480.00, 256.00,480.00S0.00,365.392,0.00,224.00z
	 M 197.488,224.00c0.00-32.32, 26.208-58.512, 58.512-58.512S 314.512,191.68, 314.512,224.00S 288.32,282.512, 256.00,282.512S 197.488,256.32, 197.488,224.00z" data-tags="disk, cd, compact disk, store, save" />
<glyph unicode="&#xe060;" d="M 128.00,192.00c0.00,70.688, 57.312,128.00, 128.00,128.00s 128.00-57.312, 128.00-128.00c0.00-70.688-57.312-128.00-128.00-128.00S 128.00,121.312, 128.00,192.00z M0.00,320.00
	l0.00-256.00 c0.00-32.00, 32.00-64.00, 64.00-64.00l 384.00,0.00 c 32.00,0.00, 64.00,32.00, 64.00,64.00L 512.00,320.00 c0.00,32.00-32.00,64.00-64.00,64.00l-99.36,0.00 C 350.816,389.152, 352.00,394.576, 352.00,400.00c0.00,24.00-24.00,48.00-48.00,48.00l-96.00,0.00 c-24.00,0.00-48.00-24.00-48.00-48.00
	c0.00-5.424, 1.184-10.848, 3.36-16.00L 64.00,384.00 C 32.00,384.00,0.00,352.00,0.00,320.00z M 192.00,192.00c0.00-35.344, 28.656-64.00, 64.00-64.00s 64.00,28.656, 64.00,64.00s-28.656,64.00-64.00,64.00S 192.00,227.344, 192.00,192.00z" data-tags="camera, photo, pictures, images" />
<glyph unicode="&#xe061;" d="M 416.00,160.00l 32.00,0.00 l0.00-64.00 l-32.00,0.00 L 416.00,160.00 z M 416.00,64.00l 32.00,0.00 l0.00-64.00 l-32.00,0.00 L 416.00,64.00 z M 416.00,256.00l 32.00,0.00 l0.00-64.00 l-32.00,0.00 L 416.00,256.00 z M 416.00,352.00l 32.00,0.00 l0.00-64.00 l-32.00,0.00 L 416.00,352.00 z M 416.00,448.00l 32.00,0.00 l0.00-64.00 
	l-32.00,0.00 L 416.00,448.00 z M 64.00,160.00l 32.00,0.00 l0.00-64.00 L 64.00,96.00 L 64.00,160.00 z M 64.00,64.00l 32.00,0.00 l0.00-64.00 L 64.00,0.00 L 64.00,64.00 z M 64.00,256.00l 32.00,0.00 l0.00-64.00 L 64.00,192.00 L 64.00,256.00 z M 64.00,352.00l 32.00,0.00 l0.00-64.00 L 64.00,288.00 L 64.00,352.00 z M 64.00,448.00l 32.00,0.00 l0.00-64.00 L 64.00,384.00 L 64.00,448.00 z M 384.00,192.00l0.00-192.00 L 128.00,0.00 L 128.00,192.00 L 384.00,192.00 z M 128.00,448.00l 256.00,0.00 l0.00-192.00 L 128.00,256.00 L 128.00,448.00 z M 32.00,480.00l0.00-512.00 
	l 448.00,0.00 L 480.00,480.00 L 32.00,480.00 z" data-tags="film, movie, video" />
<glyph unicode="&#xe062;" d="M 64.00,448.00l 384.00,0.00 l0.00-320.00 L 64.00,128.00 L 64.00,448.00 z M 96.00,480.00C 64.00,480.00, 32.00,448.00, 32.00,416.00l0.00-384.00 c0.00-32.00, 32.00-64.00, 64.00-64.00l 320.00,0.00 c 32.00,0.00, 64.00,32.00, 64.00,64.00L 480.00,416.00 c0.00,32.00-32.00,64.00-64.00,64.00L 96.00,480.00 z
	" data-tags="tablet" />
<glyph unicode="&#xe063;" d="M 96.00,448.00l 320.00,0.00 l0.00-160.00 L 96.00,288.00 L 96.00,448.00 z M 160.00,128.00c0.00,53.008, 42.992,96.00, 96.00,96.00s 96.00-42.992, 96.00-96.00c0.00-53.024-42.992-96.00-96.00-96.00
	S 160.00,74.976, 160.00,128.00z M 64.00,416.00l0.00-384.00 c0.00-32.00, 32.00-64.00, 64.00-64.00l 256.00,0.00 c 32.00,0.00, 64.00,32.00, 64.00,64.00L 448.00,416.00 c0.00,32.00-32.00,64.00-64.00,64.00L 128.00,480.00 C 96.00,480.00, 64.00,448.00, 64.00,416.00z M 224.00,128.00c0.00-17.664, 14.336-32.00, 32.00-32.00s 32.00,14.336, 32.00,32.00
	s-14.336,32.00-32.00,32.00S 224.00,145.664, 224.00,128.00z" data-tags="ipod, music, songs" />
<glyph unicode="&#xe064;" d="M 128.00,224.00c0.00,70.688, 57.312,128.00, 128.00,128.00s 128.00-57.312, 128.00-128.00c0.00-70.688-57.312-128.00-128.00-128.00S 128.00,153.312, 128.00,224.00z M 96.00,384.00
	c-32.00,0.00-64.00-32.00-64.00-64.00l0.00-192.00 c0.00-32.00, 32.00-64.00, 64.00-64.00l 320.00,0.00 c 32.00,0.00, 64.00,32.00, 64.00,64.00L 480.00,320.00 c0.00,32.00-32.00,64.00-64.00,64.00L 96.00,384.00 z M 192.00,224.00c0.00-35.344, 28.656-64.00, 64.00-64.00s 64.00,28.656, 64.00,64.00s-28.656,64.00-64.00,64.00
	S 192.00,259.344, 192.00,224.00z" data-tags="camera, photo, pictures, images" />
<glyph unicode="&#xe065;" d="M 224.00,480.00l0.00-128.00 l 64.00,0.00 L 288.00,480.00 L 224.00,480.00 z M 64.00,416.00l0.00-320.00 c0.00-64.00, 64.00-128.00, 128.00-128.00l 128.00,0.00 c 64.00,0.00, 128.00,64.00, 128.00,128.00L 448.00,416.00 c0.00,32.00-32.00,64.00-64.00,64.00l-64.00,0.00 l0.00-160.00 l-128.00,0.00 L 192.00,480.00 L 128.00,480.00 
	C 96.00,480.00, 64.00,448.00, 64.00,416.00z" data-tags="mouse" />
<glyph unicode="&#xe066;" d="M 224.00,96.00l 138.752-92.496C 389.376-14.256, 416.00,0.00, 416.00,32.00L 416.00,416.00 c0.00,32.00-26.624,46.256-53.248,28.496L 224.00,352.00
	l-64.00,0.00 c-32.00,0.00-64.00-32.00-64.00-64.00l0.00-128.00 c0.00-32.00, 32.00-64.00, 64.00-64.00L 224.00,96.00 z" data-tags="volume, mute, speaker" />
<glyph unicode="&#xe067;" d="M 64.00,416.00l 384.00,0.00 l0.00-256.00 L 64.00,160.00 L 64.00,416.00 z M 64.00,480.00C 32.00,480.00,0.00,448.00,0.00,416.00l0.00-256.00 c0.00-32.00, 32.00-64.00, 64.00-64.00l 160.00,0.00 l0.00-64.00 L 128.00,32.00 l0.00-64.00 l 256.00,0.00 l0.00,64.00 l-96.00,0.00 l0.00,64.00 l 160.00,0.00 
	c 32.00,0.00, 64.00,32.00, 64.00,64.00L 512.00,416.00 c0.00,32.00-32.00,64.00-64.00,64.00L 64.00,480.00 z" data-tags="monitor, screen, desktop, pc" />
<glyph unicode="&#xe068;" d="M0.00,284.976L0.00-32.00 l 89.824,0.00 L 89.824,284.976 L0.00,284.976 z M 134.736,284.976L 134.736-32.00 l 332.352,0.00 
	C 489.552-32.00, 512.00-9.36, 512.00,13.28L 512.00,64.00 l-128.00,0.00 l0.00,32.00 l 128.00,0.00 l0.00,64.00 l-128.00,0.00 l0.00,32.00 l 128.00,0.00 l0.00,47.696 c0.00,22.64-22.448,45.28-44.912,45.28L 260.496,284.976 L 260.496,402.72 
	c0.00,22.64-22.464,45.28-44.928,45.28s-44.912-22.64-44.912-45.28l0.00-117.744 L 134.736,284.976 z" data-tags="thumbs up, like" />
<glyph unicode="&#xe069;" d="M0.00,131.008L0.00,448.00 l 89.824,0.00 l0.00-316.992 L0.00,131.008 z M 134.736,131.008L 134.736,448.00 l 332.352,0.00 C 489.552,448.00, 512.00,425.36, 512.00,402.72L 512.00,352.00 
	l-128.00,0.00 l0.00-32.00 l 128.00,0.00 l0.00-64.00 l-128.00,0.00 l0.00-32.00 l 128.00,0.00 l0.00-47.696 c0.00-22.64-22.448-45.28-44.912-45.28L 260.48,131.024 l0.00-117.728 c0.00-22.64-22.448-45.28-44.912-45.28s-44.928,22.64-44.928,45.28l0.00,117.728 
	L 134.736,131.024 z" data-tags="thumbs down, dislike" />
<glyph unicode="&#xe06a;" d="M 96.00,128.00c0.00,16.00, 16.00,32.00, 32.00,32.00l 256.00,0.00 c 16.00,0.00, 32.00-16.00, 32.00-32.00s-16.00-32.00-32.00-32.00L 128.00,96.00 C 112.00,96.00, 96.00,112.00, 96.00,128.00z M 96.00,288.00
	c0.00,35.344, 28.656,64.00, 64.00,64.00s 64.00-28.656, 64.00-64.00s-28.656-64.00-64.00-64.00S 96.00,252.656, 96.00,288.00z M 288.00,288.00c0.00,35.344, 28.656,64.00, 64.00,64.00s 64.00-28.656, 64.00-64.00s-28.656-64.00-64.00-64.00
	S 288.00,252.656, 288.00,288.00z M0.00,224.00c0.00-141.392, 114.608-256.00, 256.00-256.00s 256.00,114.608, 256.00,256.00c0.00,141.376-114.608,256.00-256.00,256.00S0.00,365.376,0.00,224.00z" data-tags="neutral, smiley, face" />
<glyph unicode="&#xe06b;" d="M 96.00,288.00c0.00,35.344, 28.656,64.00, 64.00,64.00s 64.00-28.656, 64.00-64.00s-28.656-64.00-64.00-64.00S 96.00,252.656, 96.00,288.00z M 288.00,288.00
	c0.00,35.344, 28.656,64.00, 64.00,64.00s 64.00-28.656, 64.00-64.00s-28.656-64.00-64.00-64.00S 288.00,252.656, 288.00,288.00z M 96.00,145.136c 13.504,26.624, 308.88,28.864, 320.00,0.00
	C 438.464,86.832, 326.688,32.00, 256.00,32.00S 96.00,82.656, 96.00,145.136z M0.00,224.00c0.00-141.392, 114.608-256.00, 256.00-256.00s 256.00,114.608, 256.00,256.00c0.00,141.376-114.608,256.00-256.00,256.00
	S0.00,365.376,0.00,224.00z" data-tags="grin, smiley, face" />
<glyph unicode="&#xe06c;" d="M 372.352,448.00C 323.792,448.00, 281.008,391.456, 256.00,354.208C 230.992,391.456, 188.208,448.00, 139.648,448.00C 62.512,448.00,0.00,386.112,0.00,309.776
		c0.00-43.984, 20.752-83.152, 53.088-108.464C 87.152,169.856, 243.36,25.024, 255.952,2.88l0.00-0.128 c0.00,0.016, 0.032,0.048, 0.048,0.064
		c0.00-0.016, 0.032-0.048, 0.048-0.064L 256.048,2.88 c 12.576,22.16, 168.80,166.992, 202.864,198.432C 491.248,226.624, 512.00,265.808, 512.00,309.776
		C 512.00,386.112, 449.488,448.00, 372.352,448.00z" data-tags="heart, like, love, favorite" />
<glyph unicode="&#xe06d;" d="M 219.744,363.456c0.00,27.248, 21.616,49.328, 48.288,49.328c 26.656,0.00, 48.288-22.08, 48.288-49.328
	c0.00-27.264-21.632-49.344-48.288-49.344C 241.36,314.112, 219.744,336.208, 219.744,363.456z M 260.432,224.40L 512.00,289.184
	C 481.568,403.36, 380.848,479.856, 260.752,480.00C 140.672,480.144, 39.744,403.904, 9.024,289.792c-30.736-114.096, 18.592-229.424, 123.024-287.664
	c 104.432-58.272, 230.48-40.752, 314.384,43.664L 260.432,224.40z" data-tags="pacman, game" />
<glyph unicode="&#xe06e;" d="M 213.952,446.672c 21.024,44.432, 63.056,44.432, 84.096,0.00l 52.176-110.32l 116.672-17.68
	c 47.008-7.136, 59.984-48.848, 25.984-83.44l-84.416-85.872l 19.92-121.248c 8.032-48.848-25.968-74.64-68.016-51.568L 256.00,33.776l-104.352-57.232
	c-42.048-23.072-76.048,2.72-68.016,51.568l 19.92,121.248l-84.416,85.872c-34.016,34.592-21.008,76.304, 25.984,83.44l 116.672,17.68L 213.952,446.672z" data-tags="star, favorite, rate" />
<glyph unicode="&#xe06f;" d="M 229.712,363.168c 13.136,27.776, 39.424,27.776, 52.544,0.00l 32.624-68.96l 72.928-11.056
	c 29.376-4.448, 37.488-30.512, 16.24-52.144l-52.768-53.664l 12.448-75.776c 5.008-30.528-16.24-46.64-42.512-32.224L 256.00,105.12l-65.216-35.776
	c-26.288-14.416-47.536,1.68-42.512,32.224l 12.448,75.776l-52.768,53.664c-21.264,21.632-13.136,47.696, 16.24,52.144l 72.928,11.056L 229.712,363.168z
	 M 213.968,446.672l-52.192-110.32l-116.672-17.68c-47.008-7.136-60.00-48.848-25.984-83.44l 84.416-85.872l-19.92-121.248
	c-8.032-48.848, 25.968-74.64, 68.016-51.568L 256.00,33.776l 104.352-57.232c 42.048-23.072, 76.048,2.72, 68.016,51.568l-19.92,121.248l 84.416,85.872
	c 34.016,34.592, 21.008,76.304-25.984,83.44l-116.672,17.68l-52.192,110.32C 277.008,491.104, 234.992,491.104, 213.968,446.672z" data-tags="star, favorite, rate" />
<glyph unicode="&#xe070;" d="M 512.00,416.00L 9.568,416.00 l 226.64-190.40L 512.00,416.00z M0.00,364.48L0.00,32.00 l 510.72,0.00 L 510.72,368.48 L 236.208,128.00L0.00,364.48z" data-tags="envelope, mail, email, contact" />
<glyph unicode="&#xe071;" d="M0.00,256.00c0.00-40.496, 23.456-78.144, 58.40-109.12L 32.00,0.00l 144.48,80.464
	C 208.112,69.872, 239.968,64.00, 268.192,64.00C 375.904,64.00, 512.00,149.952, 512.00,256.00c0.00,106.032-136.096,192.00-243.808,192.00S0.00,362.032,0.00,256.00z" data-tags="comment, chat, talk, bubble" />
<glyph unicode="&#xe072;" d="M0.00,282.672c0.00-62.288, 57.584-156.56, 118.96-164.48L 163.632,32.00l 100.448,85.328l 115.952,0.00 
	C 446.016,117.328, 512.00,216.00, 512.00,282.672C 512.00,349.328, 446.016,416.00, 380.032,416.00L 131.968,416.00 C 65.984,416.00,0.00,349.328,0.00,282.672z" data-tags="comment, chat, bubble, talk" />
<glyph unicode="&#xe073;" d="M 128.00,384.00c0.00-48.624, 28.592-121.184, 66.40-161.76C 71.168,207.344, 32.00,99.184, 32.00-32.00l 448.00,0.00 
	c0.00,131.184-39.184,239.344-162.40,254.24C 355.408,262.816, 384.00,335.376, 384.00,384.00c0.00,70.688-57.312,96.00-128.00,96.00S 128.00,454.688, 128.00,384.00z" data-tags="user, avatar, profile" />
<glyph unicode="&#xe074;" d="M 298.208,291.248L 298.208,448.00L 213.792,448.00L 213.792,291.248L 96.00,291.248L 256.00,128.00L 416.00,291.248 	zM 448.00,192.00L 448.00,64.00L 64.00,64.00L 64.00,192.00L0.00,192.00L0.00,0.00L 512.00,0.00L 512.00,192.00 	z" data-tags="download" />
<glyph unicode="&#xe075;" d="M 213.792,128.00L 298.208,128.00L 298.208,284.752L 416.00,284.752L 256.00,448.00L 96.00,284.752L 213.792,284.752 	zM 448.00,192.00L 448.00,64.00L 64.00,64.00L 64.00,192.00L0.00,192.00L0.00,0.00L 512.00,0.00L 512.00,192.00 	z" data-tags="upload" />
<glyph unicode="&#xe076;" d="M 40.00,192.00L 158.544,352.00l 194.912,0.00 L 472.00,192.00L 384.00,192.00 l-64.00-64.00l-128.00,0.00 l-64.00,64.00L 40.00,192.00 z M 140.496,384.00L0.00,192.00l0.00-160.00 l 512.00,0.00 L 512.00,192.00 
	L 371.504,384.00L 140.496,384.00 z" data-tags="inbox, box, drawer, archive" />
<glyph unicode="&#xe077;" d="M 64.00,320.00c0.00,48.00, 48.00,96.00, 96.00,96.00l 192.00,0.00 c 48.00,0.00, 96.00-48.00, 96.00-96.00l0.00-192.00 c0.00-48.00-48.00-96.00-96.00-96.00L 160.00,32.00 c-48.00,0.00-96.00,48.00-96.00,96.00L 64.00,320.00 z M0.00,352.00l0.00-256.00 
	c0.00-64.00, 64.00-128.00, 128.00-128.00l 256.00,0.00 c 64.00,0.00, 128.00,64.00, 128.00,128.00L 512.00,352.00 c0.00,64.00-64.00,128.00-128.00,128.00L 128.00,480.00 C 64.00,480.00,0.00,416.00,0.00,352.00z M 160.00,224.00c0.00-53.008, 42.992-96.00, 96.00-96.00s 96.00,42.992, 96.00,96.00s-42.992,96.00-96.00,96.00S 160.00,277.008, 160.00,224.00z" data-tags="partial, checkbox" />
<glyph unicode="&#xe078;" d="M 64.00,320.00c0.00,48.00, 48.00,96.00, 96.00,96.00l 192.00,0.00 c 48.00,0.00, 96.00-48.00, 96.00-96.00l0.00-192.00 c0.00-48.00-48.00-96.00-96.00-96.00L 160.00,32.00 c-48.00,0.00-96.00,48.00-96.00,96.00L 64.00,320.00 z M0.00,352.00l0.00-256.00 
	c0.00-64.00, 64.00-128.00, 128.00-128.00l 256.00,0.00 c 64.00,0.00, 128.00,64.00, 128.00,128.00L 512.00,352.00 c0.00,64.00-64.00,128.00-128.00,128.00L 128.00,480.00 C 64.00,480.00,0.00,416.00,0.00,352.00z" data-tags="unchecked, checkbox" />
<glyph unicode="&#xe079;" d="M 226.32,212.896L 176.00,267.072L 128.00,215.376L 224.00,112.00L 384.00,301.536L 352.00,336.00 	zM 384.00,480.00L 128.00,480.00 C 64.00,480.00,0.00,416.00,0.00,352.00l0.00-256.00 c0.00-64.00, 64.00-128.00, 128.00-128.00l 256.00,0.00 c 64.00,0.00, 128.00,64.00, 128.00,128.00L 512.00,352.00 C 512.00,416.00, 448.00,480.00, 384.00,480.00z M 448.00,128.00c0.00-48.00-48.00-96.00-96.00-96.00L 160.00,32.00 c-48.00,0.00-96.00,48.00-96.00,96.00L 64.00,320.00 c0.00,48.00, 48.00,96.00, 96.00,96.00
		l 192.00,0.00 c 48.00,0.00, 96.00-48.00, 96.00-96.00L 448.00,128.00 z" data-tags="checked, checkbox" />
<glyph unicode="&#xe07a;" d="M 64.00,224.00c0.00,35.344, 28.656,64.00, 64.00,64.00s 64.00-28.656, 64.00-64.00s-28.656-64.00-64.00-64.00S 64.00,188.656, 64.00,224.00z M 128.00,96.00
	c 70.688,0.00, 128.00,57.312, 128.00,128.00s-57.312,128.00-128.00,128.00s-128.00-57.312-128.00-128.00S 57.312,96.00, 128.00,96.00z M 320.00,224.00c0.00,35.344, 28.656,64.00, 64.00,64.00s 64.00-28.656, 64.00-64.00s-28.656-64.00-64.00-64.00
	S 320.00,188.656, 320.00,224.00z M 384.00,352.00c-70.688,0.00-128.00-57.312-128.00-128.00s 57.312-128.00, 128.00-128.00s 128.00,57.312, 128.00,128.00S 454.688,352.00, 384.00,352.00z" data-tags="circles" />
<glyph unicode="&#xe07b;" d="M 192.00,224.00l-32.176-77.44L 256.00,160.00L 192.00,224.00z M 224.00,250.176L 282.192,192.00L 512.00,421.808L 453.808,480.00
	L 224.00,250.176z M 64.00,480.00C 32.00,480.00,0.00,448.00,0.00,416.00l0.00-384.00 c0.00-32.00, 32.00-64.00, 64.00-64.00l 384.00,0.00 c 32.00,0.00, 64.00,32.00, 64.00,64.00L 512.00,345.60 L 448.00,307.20L 448.00,96.00 c0.00-32.00-32.00-64.00-64.00-64.00L 128.00,32.00 c-32.00,0.00-64.00,32.00-64.00,64.00L 64.00,352.00 c0.00,32.00, 32.00,64.00, 64.00,64.00l 192.00,0.00 l 64.00,64.00L 64.00,480.00 z" data-tags="pencil, write, blog" />
<glyph unicode="&#xe07c;" d="M 160.00,160.00l 266.256,131.376c 28.992,14.32, 28.992,42.944,0.00,57.248L 160.00,480.00L 160.00,160.00 z M 96.00,480.00C 80.00,480.00, 64.00,464.00, 64.00,448.00
	l0.00-448.00 c0.00-16.00, 16.00-32.00, 32.00-32.00s 32.00,16.00, 32.00,32.00L 128.00,448.00 C 128.00,464.00, 112.00,480.00, 96.00,480.00z" data-tags="flag, report" />
<glyph unicode="&#xe07d;" d="M 192.00,208.00c0.00-11.20, 16.00-22.40, 32.00-22.40l 64.00,0.00 c 16.00,0.00, 32.00,11.20, 32.00,22.40c0.00,11.184-16.00,22.40-32.00,22.40l-64.00,0.00 
	C 208.00,230.40, 192.00,219.184, 192.00,208.00z M 368.00,320.00c-23.008,0.00-46.048-18.624-61.44-45.008c 10.672-1.056, 21.216-8.56, 29.44-19.504
	c 8.88,11.856, 20.416,19.712, 32.00,19.712l 64.00,0.00 c 24.00,0.00, 48.00-33.616, 48.00-67.20s-24.00-67.20-48.00-67.20l-64.00,0.00 c-11.584,0.00-23.12,7.856-32.00,19.712
	c-8.224-10.928-18.768-18.432-29.44-19.488C 321.952,114.624, 344.992,96.00, 368.00,96.00l 64.00,0.00 c 40.00,0.00, 80.00,56.00, 80.00,112.00s-40.00,112.00-80.00,112.00L 368.00,320.00 z M 144.00,96.00
	c 23.008,0.00, 46.048,18.624, 61.44,45.024c-10.688,1.04-21.216,8.56-29.44,19.488C 167.104,148.656, 155.568,140.80, 144.00,140.80L 80.00,140.80 c-24.00,0.00-48.00,33.616-48.00,67.20
	s 24.00,67.20, 48.00,67.20l 64.00,0.00 c 11.568,0.00, 23.104-7.856, 32.00-19.712c 8.224,10.944, 18.752,18.432, 29.44,19.504C 190.048,301.376, 167.008,320.00, 144.00,320.00L 80.00,320.00 c-40.00,0.00-80.00-56.00-80.00-112.00
	s 40.00-112.00, 80.00-112.00L 144.00,96.00 z" data-tags="link, chain, url, uri" />
<glyph unicode="&#xe07e;" d="M 256.00,480.00C 114.608,480.00,0.00,365.376,0.00,224.00c0.00-141.392, 114.608-256.00, 256.00-256.00s 256.00,114.608, 256.00,256.00
	C 512.00,365.376, 397.392,480.00, 256.00,480.00z M 391.312,96.00L 120.688,96.00 L 120.688,352.00 l 270.624,0.00 L 391.312,96.00 z" data-tags="stop, media control" />
<glyph unicode="&#xe07f;" d="M 241.888,101.344C 216.944,81.312, 192.00,93.248, 192.00,125.248L 192.00,322.736 
	c0.00,32.016, 24.816,43.792, 49.632,23.60l 101.888-82.992c 24.816-20.208, 24.688-60.464-0.272-80.512L 241.888,101.344z M0.00,224.00c0.00-141.392, 114.608-256.00, 256.00-256.00
	s 256.00,114.608, 256.00,256.00c0.00,141.376-114.608,256.00-256.00,256.00S0.00,365.376,0.00,224.00z" data-tags="play, media control" />
<glyph unicode="&#xe080;" d="M 120.688,320.00c0.00,16.00, 16.00,32.00, 32.00,32.00L 198.40,352.00 c 16.00,0.00, 32.00-16.00, 32.00-32.00l0.00-192.00 c0.00-16.00-16.00-32.00-32.00-32.00L 152.688,96.00 c-16.00,0.00-32.00,16.00-32.00,32.00L 120.688,320.00 z
	 M 281.60,320.00c0.00,16.00, 16.00,32.00, 32.00,32.00l 45.712,0.00 c 16.00,0.00, 32.00-16.00, 32.00-32.00l0.00-192.00 c0.00-16.00-16.00-32.00-32.00-32.00L 313.60,96.00 c-16.00,0.00-32.00,16.00-32.00,32.00L 281.60,320.00 z M0.00,224.00c0.00-141.392, 114.608-256.00, 256.00-256.00s 256.00,114.608, 256.00,256.00
	c0.00,141.376-114.608,256.00-256.00,256.00S0.00,365.376,0.00,224.00z" data-tags="pause, media control" />
<glyph unicode="&#xe081;" d="M 168.752,101.344c-24.96-20.032-49.888-8.096-49.888,23.904L 118.864,322.736 
	c0.00,32.016, 24.816,43.792, 49.632,23.60l 101.888-82.992c 24.816-20.208, 24.688-60.464-0.272-80.512L 168.752,101.344z M 343.76,320.00c0.00,16.00, 16.00,32.00, 32.00,32.00l 9.136,0.00 
	c 16.00,0.00, 32.00-16.00, 32.00-32.00l0.00-192.00 c0.00-16.00-16.00-32.00-32.00-32.00l-9.136,0.00 c-16.00,0.00-32.00,16.00-32.00,32.00L 343.76,320.00 z M0.00,224.00c0.00-141.392, 114.608-256.00, 256.00-256.00s 256.00,114.608, 256.00,256.00c0.00,141.376-114.608,256.00-256.00,256.00
	S0.00,365.376,0.00,224.00z" data-tags="next, media control, right" />
<glyph unicode="&#xe082;" d="M 393.136,125.248c0.00-32.00-24.944-43.936-49.888-23.904l-101.36,81.488
	c-24.96,20.048-25.072,60.32-0.272,80.512l 101.888,82.992c 24.816,20.208, 49.632,8.416, 49.632-23.60L 393.136,125.248 z M 136.24,352.00c 16.00,0.00, 32.00-16.00, 32.00-32.00l0.00-192.00 c0.00-16.00-16.00-32.00-32.00-32.00
	L 127.088,96.00 c-16.00,0.00-32.00,16.00-32.00,32.00L 95.088,320.00 c0.00,16.00, 16.00,32.00, 32.00,32.00L 136.24,352.00 z M 512.00,224.00c0.00,141.376-114.608,256.00-256.00,256.00S0.00,365.376,0.00,224.00c0.00-141.392, 114.608-256.00, 256.00-256.00S 512.00,82.608, 512.00,224.00z" data-tags="previous, media control, left" />
<glyph unicode="&#xe083;" d="M 448.00,448.00L 64.00,448.00 c0.00-95.136, 69.184-161.68, 160.00-187.52l0.00-197.536 C 168.832,59.392, 128.00,46.912, 128.00,32.00
	c0.00-17.664, 57.312-32.00, 128.00-32.00s 128.00,14.336, 128.00,32.00c0.00,14.912-40.832,27.392-96.00,30.96L 288.00,260.48 C 378.816,286.32, 448.00,352.864, 448.00,448.00z M 128.00,416.00l 256.00,0.00 c0.00-70.688-57.312-128.00-128.00-128.00
	S 128.00,345.312, 128.00,416.00z" data-tags="drink, cup" />
<glyph unicode="&#xe084;" d="M 448.00,448.00L 64.00,448.00 c0.00-95.136, 69.184-161.68, 160.00-187.52l0.00-197.536 C 168.832,59.392, 128.00,46.912, 128.00,32.00
	c0.00-17.664, 57.312-32.00, 128.00-32.00s 128.00,14.336, 128.00,32.00c0.00,14.912-40.832,27.392-96.00,30.96L 288.00,260.48 C 378.816,286.32, 448.00,352.864, 448.00,448.00z" data-tags="drink, cup" />
<glyph unicode="&#xe085;" d="M0.00,128.00l0.00-64.00 c0.00-64.00, 64.00-96.00, 128.00-96.00l 256.00,0.00 c 64.00,0.00, 128.00,32.00, 128.00,96.00l0.00,64.00 L0.00,128.00 z M0.00,224.00c0.00-16.00, 16.00-32.00, 32.00-32.00l 448.00,0.00 c 16.00,0.00, 32.00,16.00, 32.00,32.00
	s-16.00,32.00-32.00,32.00L 32.00,256.00 C 16.00,256.00,0.00,240.00,0.00,224.00z M0.00,320.00l 512.00,0.00 c0.00,96.00-96.00,160.00-192.00,160.00l-128.00,0.00 C 96.00,480.00,0.00,416.00,0.00,320.00z" data-tags="hamburger, food, lunch" />
<glyph unicode="&#xe086;" d="M 320.00,320.00c0.00,16.00, 48.00,32.00, 64.00,32.00s 32.00-16.00, 32.00-32.00l0.00-128.00 c0.00-16.00-16.00-32.00-32.00-32.00s-64.00,16.00-64.00,32.00L 320.00,320.00 z M0.00,448.00l0.00-384.00 c0.00-32.00, 32.00-64.00, 64.00-64.00l 192.00,0.00 
	c 32.00,0.00, 64.00,32.00, 64.00,64.00l0.00,32.00 l 96.00,0.00 c 32.00,0.00, 64.00,32.00, 64.00,64.00L 480.00,352.00 c0.00,32.00-32.00,64.00-64.00,64.00l-96.00,0.00 L 320.00,448.00 L0.00,448.00 z" data-tags="mug, drink" />
<glyph unicode="&#xe087;" d="M 64.00,480.00C 32.00,480.00,0.00,448.00,0.00,416.00l0.00-384.00 c0.00-32.00, 32.00-64.00, 64.00-64.00l 384.00,0.00 c 32.00,0.00, 64.00,32.00, 64.00,64.00L 512.00,416.00 c0.00,32.00-32.00,64.00-64.00,64.00L 64.00,480.00 z M 416.00,64.00l 64.00,0.00 l0.00-64.00 l-64.00,0.00 
	L 416.00,64.00 z M 320.00,64.00l 64.00,0.00 l0.00-64.00 l-64.00,0.00 L 320.00,64.00 z M 128.00,64.00l 64.00,0.00 l0.00-64.00 L 128.00,0.00 L 128.00,64.00 z M 32.00,64.00l 64.00,0.00 l0.00-64.00 L 32.00,0.00 L 32.00,64.00 z M 416.00,160.00l 64.00,0.00 l0.00-64.00 l-64.00,0.00 L 416.00,160.00 z M 320.00,160.00l 64.00,0.00 l0.00-64.00 l-64.00,0.00 L 320.00,160.00 z M 224.00,160.00l 64.00,0.00 l0.00-64.00 l-64.00,0.00 L 224.00,160.00 z M 32.00,160.00l 64.00,0.00 l0.00-64.00 L 32.00,96.00 L 32.00,160.00 z
	 M 96.00,288.00L 32.00,288.00 L 32.00,352.00 l 64.00,0.00 L 96.00,288.00 z M 192.00,288.00L 128.00,288.00 L 128.00,352.00 l 64.00,0.00 L 192.00,288.00 z M 288.00,288.00l-64.00,0.00 L 224.00,352.00 l 64.00,0.00 L 288.00,288.00 z M 384.00,288.00l-64.00,0.00 L 320.00,352.00 l 64.00,0.00 L 384.00,288.00 z M 416.00,256.00l 64.00,0.00 l0.00-64.00 l-64.00,0.00 L 416.00,256.00 z M 320.00,256.00l 64.00,0.00 l0.00-64.00 l-64.00,0.00 L 320.00,256.00 z M 128.00,256.00l 64.00,0.00 l0.00-64.00 L 128.00,192.00 L 128.00,256.00 z M 32.00,256.00
	l 64.00,0.00 l0.00-64.00 L 32.00,192.00 L 32.00,256.00 z" data-tags="calendar, date, schedule" />
<glyph unicode="&#xe088;" d="M 256.00,224.00L 256.00,320.00L 224.00,320.00L 224.00,192.00L 320.00,192.00L 320.00,224.00 	zM 240.00,448.00C 107.456,448.00,0.00,340.544,0.00,208.00s 107.456-240.00, 240.00-240.00s 240.00,107.456, 240.00,240.00S 372.544,448.00, 240.00,448.00z M 240.00,28.00C 140.592,28.00, 60.00,108.576, 60.00,208.00
		C 60.00,307.408, 140.592,388.00, 240.00,388.00S 420.00,307.408, 420.00,208.00C 420.00,108.576, 339.408,28.00, 240.00,28.00z" data-tags="clock, time, history" />
<glyph unicode="&#xe089;" d="M 480.00,416.00l-64.00,0.00 c0.00,16.00-16.00,32.00-32.00,32.00s-32.00-16.00-32.00-32.00l-64.00,0.00 c0.00,16.00-16.00,32.00-32.00,32.00s-32.00-16.00-32.00-32.00l-64.00,0.00 c0.00,16.00-16.00,32.00-32.00,32.00S 96.00,432.00, 96.00,416.00L 32.00,416.00 C 16.00,416.00,0.00,400.00,0.00,384.00l0.00-352.00 c0.00-32.00, 32.00-64.00, 64.00-64.00l 384.00,0.00 
		c 32.00,0.00, 64.00,32.00, 64.00,64.00L 512.00,384.00 C 512.00,400.00, 496.00,416.00, 480.00,416.00z M 480.00,61.856c0.00-32.00-32.00-63.984-64.00-63.984L 96.00-2.128 c-32.00,0.00-64.00,31.984-64.00,63.984L 32.00,352.00 l 448.00,0.00 L 480.00,61.856 zM 278.00,64.00L 328.496,64.00L 421.504,264.00L 421.504,288.00L 248.992,288.00L 248.992,256.00L 370.496,256.00 	zM 152.496,221.504c 3.008,2.496, 8.496,7.504, 16.496,15.504L 168.00,64.00l 48.00,0.00 L 216.00,288.00 l-39.504,0.00 l-73.504-58.00l 23.008-28.992L 152.496,221.504z" data-tags="calendar, date, schedule" />
<glyph unicode="&#xe08a;" d="M 64.00,224.00C 64.00,330.048, 149.968,416.00, 256.00,416.00s 192.00-85.952, 192.00-192.00c0.00-106.032-85.968-192.00-192.00-192.00S 64.00,117.968, 64.00,224.00z
	 M0.00,224.00c0.00-141.392, 114.608-256.00, 256.00-256.00s 256.00,114.608, 256.00,256.00S 397.392,480.00, 256.00,480.00S0.00,365.392,0.00,224.00z M 237.536,238.288c 7.936,8.464, 20.80,8.88, 28.72,0.912
	c 7.936-7.968, 7.936-21.264,0.00-29.728c-7.92-8.448-20.784-8.864-28.72-0.912C 229.616,216.512, 229.616,229.824, 237.536,238.288z M 280.608,199.28
	l 50.064,106.496l-103.392-52.96l-45.952-110.608L 280.608,199.28z" data-tags="compass, location" />
<glyph unicode="&#xe000;" d="M 437.856,143.68L 512.00,218.576L 256.00,480.00L0.00,218.576l 74.144-74.88l 27.632,28.224l0.00-158.192 
	C 101.776-9.136, 124.64-32.00, 147.488-32.00c 22.848,0.00, 45.712,22.864, 45.712,45.712l0.00,124.784 l 123.776,0.00 l0.00-124.784 c0.00-22.864, 22.864-45.712, 45.696-45.712
	c 22.88,0.00, 45.712,22.864, 45.712,45.712L 408.384,173.744 L 437.856,143.68z" data-tags="home, house" />
<glyph unicode="&#x20;" horiz-adv-x="256" />
<glyph class="hidden" unicode="&#xf000;" d="M0,480L 512 -32L0 -32 z" horiz-adv-x="0" />
</font>
</defs>
</svg>
